<?xml version="1.0" encoding="UTF-8"?>
<svg xmlns="http://www.w3.org/2000/svg" xmlns:xlink="http://www.w3.org/1999/xlink" width="150px" height="150px" viewBox="0 0 150 150" version="1.1">
<g id="surface1">
<path style=" stroke:none;fill-rule:nonzero;fill:rgb(41.176471%,38.431373%,69.803923%);fill-opacity:1;" d="M 126.753906 11.171875 C 129.640625 11.144531 132.523438 11.125 135.410156 11.113281 C 136.394531 11.105469 137.375 11.097656 138.355469 11.089844 C 139.769531 11.078125 141.179688 11.070312 142.589844 11.066406 C 143.03125 11.0625 143.46875 11.054688 143.921875 11.050781 C 146.058594 11.050781 147.070312 11.066406 148.894531 12.234375 C 149.101562 13.230469 149.101562 13.230469 149.101562 14.472656 C 149.105469 14.945312 149.109375 15.417969 149.113281 15.902344 C 149.109375 16.683594 149.109375 16.683594 149.105469 17.484375 C 149.105469 18.035156 149.109375 18.585938 149.113281 19.15625 C 149.117188 21.019531 149.113281 22.878906 149.109375 24.742188 C 149.109375 26.070312 149.113281 27.398438 149.117188 28.730469 C 149.125 31.972656 149.121094 35.214844 149.117188 38.460938 C 149.113281 41.09375 149.113281 43.730469 149.113281 46.363281 C 149.117188 46.738281 149.117188 47.113281 149.117188 47.5 C 149.117188 48.261719 149.117188 49.019531 149.117188 49.78125 C 149.121094 56.921875 149.117188 64.0625 149.109375 71.203125 C 149.101562 77.332031 149.101562 83.464844 149.109375 89.59375 C 149.117188 96.707031 149.121094 103.820312 149.117188 110.933594 C 149.117188 111.695312 149.117188 112.453125 149.113281 113.210938 C 149.113281 113.582031 149.113281 113.957031 149.113281 114.339844 C 149.113281 116.972656 149.117188 119.605469 149.121094 122.238281 C 149.125 125.78125 149.121094 129.324219 149.109375 132.863281 C 149.109375 134.167969 149.109375 135.46875 149.113281 136.773438 C 149.117188 138.546875 149.113281 140.316406 149.105469 142.089844 C 149.109375 142.613281 149.109375 143.132812 149.113281 143.671875 C 149.109375 144.144531 149.105469 144.617188 149.101562 145.101562 C 149.101562 145.714844 149.101562 145.714844 149.101562 146.34375 C 148.894531 147.339844 148.894531 147.339844 147.234375 148.402344 C 145.699219 148.503906 144.21875 148.542969 142.683594 148.53125 C 142.214844 148.53125 141.746094 148.535156 141.261719 148.535156 C 139.683594 148.535156 138.105469 148.53125 136.527344 148.523438 C 135.398438 148.523438 134.269531 148.523438 133.140625 148.527344 C 130.070312 148.527344 127 148.519531 123.929688 148.511719 C 120.722656 148.503906 117.515625 148.503906 114.308594 148.503906 C 108.234375 148.5 102.15625 148.492188 96.082031 148.480469 C 89.167969 148.46875 82.253906 148.464844 75.335938 148.457031 C 61.109375 148.445312 46.882812 148.429688 32.65625 148.402344 C 33.589844 146.425781 34.398438 145.761719 36.394531 144.714844 C 40.558594 142.535156 40.558594 142.535156 43.292969 138.957031 C 44.199219 137.074219 44.835938 135.929688 46.496094 134.574219 C 50.148438 133.800781 53.871094 134.320312 57.566406 134.574219 C 57.566406 131.0625 57.566406 127.554688 57.566406 123.9375 C 67.792969 123.9375 78.023438 123.9375 88.5625 123.9375 C 88.5625 127.445312 88.5625 130.957031 88.5625 134.574219 C 105.546875 134.574219 122.535156 134.574219 140.035156 134.574219 C 140.035156 96.308594 140.035156 58.042969 140.035156 18.617188 C 135.652344 18.617188 131.269531 18.617188 126.753906 18.617188 C 126.753906 16.160156 126.753906 13.703125 126.753906 11.171875 Z M 126.753906 11.171875 "/>
<path style=" stroke:none;fill-rule:nonzero;fill:rgb(41.568628%,38.82353%,70.19608%);fill-opacity:1;" d="M 22.796875 99.960938 C 29.113281 100.089844 34.574219 102.28125 39.300781 106.382812 C 39.300781 106.734375 39.300781 107.085938 39.300781 107.445312 C 39.664062 107.445312 40.03125 107.445312 40.40625 107.445312 C 41.324219 108.597656 41.324219 108.597656 42.34375 110.140625 C 42.679688 110.640625 43.015625 111.140625 43.363281 111.65625 C 46.273438 116.871094 46.382812 123.984375 44.84375 129.660156 C 44.195312 131.195312 43.484375 132.609375 42.621094 134.042969 C 42.410156 134.402344 42.199219 134.765625 41.980469 135.136719 C 41.410156 136.039062 41.410156 136.039062 40.40625 137.234375 C 40.039062 137.234375 39.675781 137.234375 39.300781 137.234375 C 39.023438 138.023438 39.023438 138.023438 38.746094 138.828125 C 33.242188 143.519531 27.226562 145.21875 20.015625 144.917969 C 13.800781 144.433594 8.699219 141.058594 4.566406 136.769531 C 0.613281 132.246094 -0.132812 128.074219 -0.207031 122.308594 C -0.226562 121.726562 -0.25 121.140625 -0.269531 120.542969 C -0.316406 116.410156 0.503906 113.609375 2.765625 110.105469 C 3.097656 109.574219 3.097656 109.574219 3.4375 109.035156 C 6.273438 104.652344 10.992188 101.949219 16.050781 100.53125 C 18.304688 100.03125 20.492188 100.011719 22.796875 99.960938 Z M 28.71875 116.734375 C 28.121094 117.320312 27.53125 117.914062 26.949219 118.515625 C 26.644531 118.816406 26.339844 119.113281 26.027344 119.421875 C 24.351562 120.890625 24.351562 120.890625 23.800781 122.871094 C 22.324219 123.582031 20.847656 124.289062 19.371094 125 C 19.085938 124.757812 18.796875 124.515625 18.5 124.265625 C 17.347656 123.347656 16.246094 122.519531 14.945312 121.808594 C 13.296875 122.03125 13.296875 122.03125 12.175781 122.871094 C 12.175781 123.75 12.175781 124.628906 12.175781 125.53125 C 12.542969 125.53125 12.90625 125.53125 13.285156 125.53125 C 13.285156 125.882812 13.285156 126.234375 13.285156 126.597656 C 14.234375 127.519531 14.234375 127.519531 15.429688 128.457031 C 16.601562 129.410156 17.734375 130.339844 18.820312 131.382812 C 20.699219 131.210938 21.640625 130.46875 22.945312 129.207031 C 23.457031 128.714844 23.457031 128.714844 23.980469 128.210938 C 24.507812 127.691406 24.507812 127.691406 25.046875 127.160156 C 25.40625 126.816406 25.765625 126.472656 26.136719 126.117188 C 28.074219 124.507812 28.074219 124.507812 28.78125 122.339844 C 29.332031 122.164062 29.878906 121.988281 30.441406 121.808594 C 30.441406 121.457031 30.441406 121.105469 30.441406 120.746094 C 30.785156 120.589844 31.128906 120.4375 31.480469 120.277344 C 32.730469 119.714844 32.730469 119.714844 33.765625 118.617188 C 33.585938 117.234375 33.585938 117.234375 33.210938 115.957031 C 31.046875 115.105469 30.597656 115.308594 28.71875 116.734375 Z M 28.71875 116.734375 "/>
<path style=" stroke:none;fill-rule:nonzero;fill:rgb(41.176471%,38.82353%,70.19608%);fill-opacity:1;" d="M 37.949219 54.773438 C 41.492188 57.9375 45.023438 62.726562 45.484375 67.503906 C 45.722656 75.5 44.910156 81.464844 39.300781 87.765625 C 35.042969 91.871094 28.390625 94.128906 22.417969 94.316406 C 16.152344 94.234375 10.460938 91.851562 5.984375 87.710938 C 1.273438 82.871094 -0.113281 78.519531 -0.171875 72.007812 C -0.1875 71.445312 -0.203125 70.886719 -0.222656 70.304688 C -0.253906 66.582031 0.324219 63.890625 2.214844 60.636719 C 2.511719 60.101562 2.808594 59.5625 3.113281 59.007812 C 3.363281 58.667969 3.617188 58.328125 3.875 57.980469 C 4.238281 57.980469 4.605469 57.980469 4.980469 57.980469 C 5.128906 57.660156 5.28125 57.339844 5.433594 57.011719 C 7.570312 53.222656 12.027344 51.425781 16.050781 50 C 23.90625 48.277344 31.578125 50.054688 37.949219 54.773438 Z M 30.996094 64.363281 C 29.867188 65.085938 29.867188 65.085938 28.78125 65.957031 C 28.78125 66.308594 28.78125 66.660156 28.78125 67.019531 C 28.417969 67.019531 28.050781 67.019531 27.675781 67.019531 C 26.921875 67.894531 26.1875 68.785156 25.460938 69.679688 C 24.167969 70.988281 22.929688 72.175781 21.414062 73.238281 C 21.105469 73.46875 20.796875 73.699219 20.480469 73.9375 C 20.480469 74.289062 20.480469 74.636719 20.480469 75 C 18.941406 74.179688 17.78125 73.480469 16.605469 72.207031 C 16.058594 71.746094 16.058594 71.746094 15.5 71.277344 C 14 71.351562 14 71.351562 12.730469 71.808594 C 12.261719 73.023438 12.261719 73.023438 12.175781 74.46875 C 13.03125 75.714844 13.03125 75.714844 14.289062 76.761719 C 14.691406 77.132812 15.09375 77.503906 15.507812 77.886719 C 16.515625 78.832031 16.515625 78.832031 17.710938 78.722656 C 17.710938 79.074219 17.710938 79.425781 17.710938 79.789062 C 19.695312 80.320312 19.695312 80.320312 21.585938 79.789062 C 21.585938 79.4375 21.585938 79.085938 21.585938 78.722656 C 21.917969 78.582031 22.25 78.4375 22.589844 78.292969 C 23.800781 77.660156 24.582031 77.078125 25.460938 76.0625 C 25.460938 75.710938 25.460938 75.363281 25.460938 75 C 26.191406 74.648438 26.921875 74.296875 27.675781 73.9375 C 27.675781 73.585938 27.675781 73.234375 27.675781 72.871094 C 27.996094 72.738281 28.320312 72.605469 28.652344 72.46875 C 30.054688 71.71875 30.929688 70.894531 32 69.746094 C 32.34375 69.386719 32.691406 69.027344 33.046875 68.65625 C 33.886719 67.605469 33.886719 67.605469 33.667969 66.394531 C 33.058594 65.105469 32.339844 64.863281 30.996094 64.363281 Z M 30.996094 64.363281 "/>
<path style=" stroke:none;fill-rule:nonzero;fill:rgb(41.176471%,38.431373%,70.19608%);fill-opacity:1;" d="M 78.910156 86.46875 C 81.382812 88.847656 82.585938 90.773438 82.785156 94.117188 C 82.667969 96.929688 81.613281 98.953125 79.703125 101.0625 C 79.15625 101.414062 78.609375 101.765625 78.042969 102.128906 C 78.445312 102.347656 78.84375 102.5625 79.253906 102.789062 C 79.769531 103.074219 80.28125 103.363281 80.8125 103.65625 C 81.324219 103.941406 81.839844 104.226562 82.367188 104.515625 C 82.769531 104.78125 83.167969 105.046875 83.578125 105.320312 C 83.578125 105.671875 83.578125 106.019531 83.578125 106.382812 C 83.945312 106.382812 84.308594 106.382812 84.6875 106.382812 C 84.6875 106.734375 84.6875 107.085938 84.6875 107.445312 C 85.050781 107.445312 85.417969 107.445312 85.792969 107.445312 C 87.800781 110.867188 88.0625 112.179688 88.5625 116.488281 C 78.515625 116.488281 68.46875 116.488281 58.117188 116.488281 C 58.917969 109.574219 58.917969 109.574219 61.4375 106.382812 C 63.679688 104.671875 66.082031 103.355469 68.632812 102.128906 C 68.121094 101.765625 67.605469 101.402344 67.078125 101.03125 C 65.183594 99.496094 64.347656 98.0625 63.652344 95.746094 C 63.625 93.285156 64.230469 91.050781 65.3125 88.828125 C 65.679688 88.828125 66.042969 88.828125 66.421875 88.828125 C 66.625 88.335938 66.625 88.335938 66.835938 87.832031 C 69.066406 84.1875 75.480469 85.023438 78.910156 86.46875 Z M 78.910156 86.46875 "/>
<path style=" stroke:none;fill-rule:nonzero;fill:rgb(43.529412%,41.568628%,70.980394%);fill-opacity:1;" d="M 75.832031 40.957031 C 76.648438 42.53125 76.417969 44.011719 76.382812 45.746094 C 76.953125 45.789062 77.523438 45.832031 78.113281 45.878906 C 80.476562 46.316406 81.773438 46.878906 83.578125 48.402344 C 83.996094 49.699219 83.996094 49.699219 83.578125 51.0625 C 81.761719 53.066406 81.761719 53.066406 80.257812 53.722656 C 78.390625 53.359375 78.390625 53.359375 76.382812 52.660156 C 74.890625 52.5625 73.453125 52.609375 71.957031 52.660156 C 71.957031 53.363281 71.957031 54.0625 71.957031 54.789062 C 72.5625 54.988281 73.171875 55.1875 73.796875 55.390625 C 74.601562 55.667969 75.40625 55.941406 76.210938 56.214844 C 76.609375 56.347656 77.007812 56.476562 77.421875 56.609375 C 80.484375 57.671875 82.492188 59.007812 84.292969 61.707031 C 85.070312 63.796875 84.976562 65.90625 84.6875 68.085938 C 83.472656 70.417969 81.988281 71.992188 79.703125 73.402344 C 77.871094 73.804688 77.871094 73.804688 76.382812 73.9375 C 76.40625 74.519531 76.429688 75.097656 76.453125 75.699219 C 76.382812 77.660156 76.382812 77.660156 75.277344 79.253906 C 73.339844 79.453125 73.339844 79.453125 71.402344 79.253906 C 70.226562 77.558594 70.015625 76.453125 69.742188 74.46875 C 69.414062 74.371094 69.085938 74.273438 68.75 74.175781 C 63.640625 72.613281 63.640625 72.613281 61.992188 71.277344 C 61.335938 69.746094 61.335938 69.746094 61.4375 68.085938 C 62.609375 66.792969 63.222656 66.136719 64.761719 65.425781 C 66.554688 65.460938 67.742188 65.808594 69.359375 66.523438 C 71.511719 67.242188 73.574219 67.105469 75.832031 67.019531 C 75.507812 65.699219 75.507812 65.699219 74.722656 64.363281 C 73.265625 63.65625 73.265625 63.65625 71.539062 63.265625 C 68.023438 62.246094 65.71875 61.316406 63.445312 58.445312 C 62.183594 56.105469 62.160156 53.632812 62.546875 51.0625 C 63.246094 49.261719 64.207031 48.351562 65.796875 47.207031 C 66.171875 46.929688 66.546875 46.652344 66.933594 46.367188 C 68.082031 45.746094 68.082031 45.746094 70.296875 45.746094 C 70.261719 45.164062 70.226562 44.582031 70.191406 43.984375 C 70.296875 42.019531 70.296875 42.019531 70.882812 40.957031 C 72.617188 40.097656 73.992188 40.53125 75.832031 40.957031 Z M 75.832031 40.957031 "/>
<path style=" stroke:none;fill-rule:nonzero;fill:rgb(41.960785%,39.215687%,70.19608%);fill-opacity:1;" d="M 34.152344 10.960938 C 34.617188 10.964844 35.082031 10.96875 35.558594 10.972656 C 37.035156 10.984375 38.511719 11.011719 39.992188 11.039062 C 40.992188 11.046875 41.996094 11.058594 43 11.066406 C 45.457031 11.089844 47.914062 11.125 50.367188 11.171875 C 50.367188 13.628906 50.367188 16.085938 50.367188 18.617188 C 45.800781 18.617188 41.234375 18.617188 36.53125 18.617188 C 36.53125 28.796875 36.53125 38.980469 36.53125 49.46875 C 34.953125 48.859375 33.378906 48.238281 31.828125 47.574219 C 30.203125 46.933594 28.828125 46.570312 27.121094 46.277344 C 27.070312 42.011719 27.03125 37.75 27.007812 33.488281 C 26.996094 31.507812 26.980469 29.527344 26.953125 27.546875 C 26.929688 25.636719 26.917969 23.726562 26.910156 21.816406 C 26.90625 21.085938 26.898438 20.359375 26.886719 19.628906 C 26.871094 18.609375 26.871094 17.589844 26.871094 16.566406 C 26.863281 15.695312 26.863281 15.695312 26.855469 14.804688 C 27.550781 10.859375 30.625 10.875 34.152344 10.960938 Z M 34.152344 10.960938 "/>
<path style=" stroke:none;fill-rule:nonzero;fill:rgb(42.352942%,39.607844%,70.19608%);fill-opacity:1;" d="M 126.753906 47.339844 C 128.136719 48.105469 128.136719 48.105469 128.964844 49.46875 C 129.304688 51.132812 129.328125 52.59375 128.964844 54.253906 C 127.722656 55.75 127.722656 55.75 126.199219 56.914062 C 125.800781 57.320312 125.398438 57.726562 124.988281 58.144531 C 123.984375 59.042969 123.984375 59.042969 122.878906 59.042969 C 122.878906 59.394531 122.878906 59.746094 122.878906 60.105469 C 122.511719 60.105469 122.148438 60.105469 121.769531 60.105469 C 121.769531 60.457031 121.769531 60.808594 121.769531 61.171875 C 120.960938 61.972656 120.960938 61.972656 119.902344 62.832031 C 119.554688 63.117188 119.210938 63.40625 118.851562 63.699219 C 117.898438 64.363281 117.898438 64.363281 116.789062 64.363281 C 116.789062 64.710938 116.789062 65.0625 116.789062 65.425781 C 111.503906 70.660156 111.503906 70.660156 108.539062 70.792969 C 104.4375 70.503906 102.394531 68.144531 99.632812 65.425781 C 99.296875 65.128906 98.960938 64.828125 98.613281 64.523438 C 95.921875 62.089844 95.921875 62.089844 95.167969 60.339844 C 95.214844 58.648438 95.597656 57.394531 96.308594 55.851562 C 97.96875 54.789062 98.320312 54.640625 100.183594 54.652344 C 100.5625 54.652344 100.9375 54.648438 101.324219 54.644531 C 102.398438 54.789062 102.398438 54.789062 104.058594 55.851562 C 104.058594 56.203125 104.058594 56.554688 104.058594 56.914062 C 104.425781 56.914062 104.789062 56.914062 105.167969 56.914062 C 105.167969 57.265625 105.167969 57.617188 105.167969 57.980469 C 106.308594 58.644531 107.050781 59.070312 108.40625 58.960938 C 110.0625 58.335938 110.945312 57.328125 112.152344 56.082031 C 112.941406 55.277344 113.746094 54.488281 114.574219 53.722656 C 114.941406 53.722656 115.304688 53.722656 115.683594 53.722656 C 115.683594 53.371094 115.683594 53.019531 115.683594 52.660156 C 116.574219 51.796875 116.574219 51.796875 117.757812 50.832031 C 118.144531 50.511719 118.527344 50.195312 118.925781 49.867188 C 119.316406 49.5625 119.707031 49.253906 120.109375 48.9375 C 120.480469 48.636719 120.847656 48.339844 121.226562 48.035156 C 123.015625 46.902344 124.6875 46.992188 126.753906 47.339844 Z M 126.753906 47.339844 "/>
<path style=" stroke:none;fill-rule:nonzero;fill:rgb(41.960785%,39.607844%,69.803923%);fill-opacity:1;" d="M 124.574219 88.628906 C 125.046875 88.625 125.523438 88.621094 126.011719 88.617188 C 127.304688 88.828125 127.304688 88.828125 128.289062 89.496094 C 129.375 90.984375 129.261719 92.269531 129.195312 94.039062 C 128.824219 95.933594 127.730469 96.691406 126.199219 97.871094 C 125.605469 98.453125 125.019531 99.042969 124.433594 99.632812 C 122.878906 101.0625 122.878906 101.0625 121.769531 101.0625 C 121.769531 101.414062 121.769531 101.765625 121.769531 102.128906 C 120.996094 102.878906 120.996094 102.878906 119.902344 103.757812 C 117.5625 105.664062 115.292969 107.632812 113.027344 109.617188 C 111.429688 110.953125 110.472656 111.660156 108.347656 111.933594 C 105.8125 111.648438 104.199219 110.777344 102.398438 109.042969 C 102.398438 108.691406 102.398438 108.339844 102.398438 107.980469 C 102.035156 107.980469 101.667969 107.980469 101.292969 107.980469 C 100.117188 106.980469 100.117188 106.980469 99.078125 105.851562 C 99.078125 105.5 99.078125 105.148438 99.078125 104.789062 C 98.5625 104.558594 98.5625 104.558594 98.039062 104.320312 C 96.863281 103.722656 96.863281 103.722656 95.757812 102.660156 C 95.285156 100.964844 95.140625 99.761719 95.515625 98.039062 C 96.640625 96.300781 97.613281 95.835938 99.632812 95.210938 C 102.871094 95.550781 104.429688 96.929688 106.507812 99.171875 C 107.394531 100.136719 107.394531 100.136719 109.039062 100.53125 C 109.039062 100.179688 109.039062 99.828125 109.039062 99.46875 C 109.835938 98.699219 109.835938 98.699219 110.941406 97.804688 C 113.144531 96.015625 115.28125 94.164062 117.40625 92.289062 C 118.449219 91.488281 118.449219 91.488281 119.558594 91.488281 C 119.558594 91.136719 119.558594 90.789062 119.558594 90.425781 C 121.1875 88.9375 122.351562 88.609375 124.574219 88.628906 Z M 124.574219 88.628906 "/>
<path style=" stroke:none;fill-rule:nonzero;fill:rgb(42.352942%,39.607844%,70.19608%);fill-opacity:1;" d="M 121.078125 0.632812 C 122.546875 1.769531 123.167969 2.617188 123.984375 4.253906 C 124.136719 5.710938 124.207031 7.042969 124.1875 8.492188 C 124.1875 8.898438 124.1875 9.300781 124.1875 9.714844 C 124.1875 10.566406 124.179688 11.414062 124.171875 12.265625 C 124.160156 13.558594 124.160156 14.855469 124.164062 16.152344 C 124.160156 16.976562 124.15625 17.804688 124.152344 18.632812 C 124.152344 19.210938 124.152344 19.210938 124.152344 19.800781 C 124.121094 21.941406 123.863281 23.605469 122.878906 25.53125 C 122.511719 25.53125 122.148438 25.53125 121.769531 25.53125 C 121.769531 25.882812 121.769531 26.234375 121.769531 26.597656 C 119.71875 27.910156 117.511719 28.03125 115.128906 27.660156 C 113.164062 26.507812 112.058594 25.460938 111.253906 23.402344 C 111.136719 21.957031 111.074219 20.566406 111.070312 19.121094 C 111.066406 18.707031 111.0625 18.289062 111.058594 17.863281 C 111.050781 16.988281 111.050781 16.113281 111.050781 15.238281 C 111.046875 13.90625 111.027344 12.570312 111.007812 11.238281 C 111.003906 10.386719 111 9.535156 111 8.679688 C 110.992188 8.285156 110.984375 7.890625 110.976562 7.480469 C 111 4.730469 111.675781 3.1875 113.46875 1.0625 C 115.742188 -0.59375 118.546875 -0.421875 121.078125 0.632812 Z M 121.078125 0.632812 "/>
<path style=" stroke:none;fill-rule:nonzero;fill:rgb(41.176471%,38.82353%,69.803923%);fill-opacity:1;" d="M 90.222656 0 C 92.128906 0.734375 92.8125 1.316406 93.882812 3.003906 C 94.769531 5.0625 94.863281 6.582031 94.871094 8.808594 C 94.871094 9.183594 94.875 9.558594 94.875 9.949219 C 94.875 10.738281 94.871094 11.53125 94.867188 12.324219 C 94.855469 13.527344 94.867188 14.726562 94.875 15.929688 C 94.875 16.703125 94.875 17.476562 94.871094 18.25 C 94.867188 18.945312 94.867188 19.640625 94.863281 20.355469 C 94.574219 23.035156 93.941406 25.253906 91.777344 27.09375 C 89.71875 27.84375 87.96875 28.042969 85.792969 27.660156 C 83.828125 26.507812 82.722656 25.464844 81.917969 23.402344 C 81.804688 21.953125 81.75 20.554688 81.753906 19.101562 C 81.75 18.683594 81.746094 18.269531 81.746094 17.839844 C 81.742188 16.964844 81.742188 16.085938 81.742188 15.207031 C 81.746094 13.871094 81.734375 12.53125 81.71875 11.191406 C 81.71875 10.335938 81.71875 9.484375 81.71875 8.628906 C 81.710938 8.230469 81.707031 7.832031 81.703125 7.421875 C 81.730469 4.460938 82.4375 2.773438 84.511719 0.632812 C 86.394531 -0.296875 88.171875 -0.28125 90.222656 0 Z M 90.222656 0 "/>
<path style=" stroke:none;fill-rule:nonzero;fill:rgb(40.392157%,38.039216%,69.01961%);fill-opacity:1;" d="M 61.4375 0 C 63.425781 1.136719 64.503906 2.191406 65.3125 4.253906 C 65.433594 5.703125 65.496094 7.09375 65.5 8.539062 C 65.503906 8.953125 65.507812 9.367188 65.511719 9.796875 C 65.515625 10.671875 65.519531 11.546875 65.519531 12.421875 C 65.519531 13.753906 65.542969 15.085938 65.5625 16.421875 C 65.566406 17.273438 65.566406 18.125 65.570312 18.980469 C 65.578125 19.375 65.585938 19.769531 65.59375 20.175781 C 65.566406 22.929688 64.917969 24.484375 63.101562 26.597656 C 61.058594 27.902344 59.382812 28.09375 57.011719 27.660156 C 55.339844 26.730469 54.011719 25.621094 53.136719 23.9375 C 53.0625 22.414062 53.019531 20.910156 53.003906 19.386719 C 53 18.933594 52.996094 18.484375 52.992188 18.015625 C 52.984375 17.058594 52.976562 16.097656 52.972656 15.140625 C 52.964844 13.675781 52.9375 12.210938 52.914062 10.746094 C 52.910156 9.816406 52.90625 8.882812 52.902344 7.953125 C 52.890625 7.515625 52.882812 7.078125 52.871094 6.628906 C 52.878906 4.488281 52.96875 3.449219 54.1875 1.597656 C 56.359375 -0.394531 58.550781 -0.351562 61.4375 0 Z M 61.4375 0 "/>
<path style=" stroke:none;fill-rule:nonzero;fill:rgb(45.882353%,43.529412%,71.372551%);fill-opacity:1;" d="M 69.160156 11.109375 C 69.621094 11.113281 70.082031 11.117188 70.558594 11.117188 C 71.054688 11.121094 71.550781 11.121094 72.066406 11.125 C 72.851562 11.128906 72.851562 11.128906 73.652344 11.136719 C 74.175781 11.140625 74.703125 11.140625 75.242188 11.144531 C 76.546875 11.152344 77.847656 11.160156 79.152344 11.171875 C 79.152344 13.628906 79.152344 16.085938 79.152344 18.617188 C 77.316406 18.632812 75.484375 18.640625 73.652344 18.648438 C 73.128906 18.65625 72.605469 18.660156 72.066406 18.664062 C 71.320312 18.667969 71.320312 18.667969 70.558594 18.667969 C 70.097656 18.671875 69.636719 18.675781 69.160156 18.675781 C 68.082031 18.617188 68.082031 18.617188 67.527344 18.085938 C 67.472656 17.023438 67.457031 15.957031 67.457031 14.894531 C 67.457031 14.3125 67.457031 13.730469 67.453125 13.132812 C 67.554688 11.199219 67.554688 11.199219 69.160156 11.109375 Z M 69.160156 11.109375 "/>
<path style=" stroke:none;fill-rule:nonzero;fill:rgb(41.176471%,38.82353%,68.235296%);fill-opacity:1;" d="M 97.417969 11.171875 C 101.070312 11.171875 104.722656 11.171875 108.488281 11.171875 C 108.488281 13.628906 108.488281 16.085938 108.488281 18.617188 C 104.832031 18.617188 101.179688 18.617188 97.417969 18.617188 C 97.417969 16.160156 97.417969 13.703125 97.417969 11.171875 Z M 97.417969 11.171875 "/>
<path style=" stroke:none;fill-rule:nonzero;fill:rgb(49.803922%,47.058824%,63.921571%);fill-opacity:1;" d="M 147.234375 12.234375 C 147.78125 12.234375 148.328125 12.234375 148.894531 12.234375 C 148.894531 56.820312 148.894531 101.402344 148.894531 147.339844 C 147.523438 147.867188 147.523438 147.867188 146.125 148.402344 C 146.308594 147.878906 146.492188 147.351562 146.679688 146.808594 C 147.226562 146.808594 147.773438 146.808594 148.339844 146.808594 C 148.28125 129.816406 148.222656 112.828125 148.15625 95.835938 C 148.148438 93.832031 148.140625 91.828125 148.132812 89.824219 C 148.132812 89.425781 148.128906 89.027344 148.128906 88.617188 C 148.105469 82.148438 148.082031 75.679688 148.058594 69.214844 C 148.039062 62.582031 148.011719 55.949219 147.988281 49.316406 C 147.972656 45.222656 147.957031 41.125 147.945312 37.03125 C 147.933594 33.894531 147.921875 30.757812 147.90625 27.625 C 147.902344 26.335938 147.898438 25.042969 147.894531 23.753906 C 147.890625 22 147.882812 20.246094 147.875 18.496094 C 147.871094 17.71875 147.871094 17.71875 147.871094 16.929688 C 147.867188 16.460938 147.867188 15.996094 147.863281 15.515625 C 147.859375 15.109375 147.859375 14.703125 147.859375 14.285156 C 147.847656 13.246094 147.847656 13.246094 147.234375 12.234375 Z M 147.234375 12.234375 "/>
<path style=" stroke:none;fill-rule:nonzero;fill:rgb(52.941179%,50.588238%,70.980394%);fill-opacity:1;" d="M 88.007812 125 C 88.191406 125 88.371094 125 88.5625 125 C 88.5625 128.160156 88.5625 131.320312 88.5625 134.574219 C 105.546875 134.574219 122.535156 134.574219 140.035156 134.574219 C 140.035156 133.347656 140.035156 132.117188 140.035156 130.851562 C 140.402344 130.324219 140.765625 129.796875 141.144531 129.253906 C 141.1875 130.207031 141.222656 131.160156 141.246094 132.113281 C 141.277344 132.910156 141.277344 132.910156 141.304688 133.722656 C 141.226562 134.40625 141.226562 134.40625 141.144531 135.105469 C 138.949219 136.511719 137.078125 136.300781 134.535156 136.265625 C 134.03125 136.265625 133.523438 136.261719 133.003906 136.261719 C 131.328125 136.25 129.652344 136.230469 127.980469 136.214844 C 126.816406 136.203125 125.65625 136.195312 124.496094 136.183594 C 122.058594 136.164062 119.625 136.140625 117.191406 136.109375 C 114.0625 136.074219 110.9375 136.050781 107.808594 136.03125 C 105.410156 136.015625 103.011719 135.992188 100.613281 135.964844 C 99.460938 135.953125 98.308594 135.945312 97.15625 135.9375 C 95.546875 135.929688 93.9375 135.90625 92.328125 135.886719 C 91.847656 135.882812 91.371094 135.882812 90.875 135.882812 C 89.550781 135.859375 89.550781 135.859375 87.453125 135.636719 C 87.089844 135.113281 86.722656 134.585938 86.347656 134.042969 C 86.710938 134.042969 87.078125 134.042969 87.453125 134.042969 C 87.636719 131.058594 87.820312 128.074219 88.007812 125 Z M 88.007812 125 "/>
<path style=" stroke:none;fill-rule:nonzero;fill:rgb(49.411765%,47.058824%,69.01961%);fill-opacity:1;" d="M 27.121094 13.296875 C 27.488281 13.296875 27.851562 13.296875 28.230469 13.296875 C 28.230469 23.828125 28.230469 34.363281 28.230469 45.210938 C 28.960938 45.5625 29.691406 45.914062 30.441406 46.277344 C 29.347656 46.277344 28.25 46.277344 27.121094 46.277344 C 27.121094 35.394531 27.121094 24.511719 27.121094 13.296875 Z M 27.121094 13.296875 "/>
<path style=" stroke:none;fill-rule:nonzero;fill:rgb(41.176471%,38.82353%,69.01961%);fill-opacity:1;" d="M 64.761719 4.253906 C 64.941406 4.253906 65.125 4.253906 65.3125 4.253906 C 65.367188 6.925781 65.410156 9.59375 65.433594 12.261719 C 65.445312 13.167969 65.460938 14.074219 65.480469 14.980469 C 65.507812 16.289062 65.519531 17.597656 65.53125 18.902344 C 65.542969 19.304688 65.550781 19.707031 65.566406 20.125 C 65.566406 22.875 64.988281 24.414062 63.101562 26.597656 C 61.390625 27.691406 61.046875 27.785156 59.121094 27.726562 C 58.425781 27.703125 57.730469 27.683594 57.011719 27.660156 C 57.011719 27.132812 57.011719 26.605469 57.011719 26.0625 C 57.742188 26.0625 58.472656 26.0625 59.226562 26.0625 C 59.269531 25.757812 59.316406 25.449219 59.363281 25.132812 C 59.898438 23.589844 60.710938 22.851562 61.992188 21.808594 C 62.359375 21.808594 62.722656 21.808594 63.101562 21.808594 C 63.28125 20.402344 63.464844 19 63.652344 17.554688 C 63.835938 17.554688 64.019531 17.554688 64.207031 17.554688 C 64.390625 13.164062 64.570312 8.777344 64.761719 4.253906 Z M 64.761719 4.253906 "/>
<path style=" stroke:none;fill-rule:nonzero;fill:rgb(67.450982%,66.274512%,83.92157%);fill-opacity:1;" d="M 121.183594 0.699219 C 121.75 1.140625 121.75 1.140625 122.324219 1.597656 C 122.324219 2.121094 122.324219 2.648438 122.324219 3.191406 C 121.828125 2.796875 121.828125 2.796875 121.320312 2.394531 C 120.128906 1.445312 120.128906 1.445312 118.449219 1.597656 C 117.902344 2.386719 117.902344 2.386719 117.34375 3.191406 C 116.796875 3.015625 116.246094 2.839844 115.683594 2.660156 C 115.316406 3.011719 114.953125 3.363281 114.574219 3.722656 C 114.210938 3.722656 113.84375 3.722656 113.46875 3.722656 C 113.285156 4.074219 113.101562 4.425781 112.914062 4.789062 C 112.550781 4.789062 112.183594 4.789062 111.808594 4.789062 C 111.808594 10.929688 111.808594 17.074219 111.808594 23.402344 C 111.625 23.402344 111.441406 23.402344 111.253906 23.402344 C 111.199219 20.734375 111.160156 18.066406 111.132812 15.398438 C 111.121094 14.492188 111.105469 13.585938 111.085938 12.675781 C 111.0625 11.371094 111.046875 10.0625 111.039062 8.753906 C 111.027344 8.351562 111.015625 7.949219 111.003906 7.535156 C 111.003906 4.78125 111.601562 3.261719 113.46875 1.0625 C 115.792969 -0.628906 118.617188 -0.402344 121.183594 0.699219 Z M 121.183594 0.699219 "/>
<path style=" stroke:none;fill-rule:nonzero;fill:rgb(50.588238%,48.627451%,74.509805%);fill-opacity:1;" d="M 21.101562 121.242188 C 21.859375 121.398438 21.859375 121.398438 22.628906 121.558594 C 23.015625 121.640625 23.402344 121.722656 23.800781 121.808594 C 23.800781 122.160156 23.800781 122.511719 23.800781 122.871094 C 22.714844 123.785156 21.609375 124.671875 20.480469 125.53125 C 18.796875 124.976562 17.652344 124.421875 16.257812 123.335938 C 15.007812 122.175781 15.007812 122.175781 13.285156 122.339844 C 13.285156 121.988281 13.285156 121.636719 13.285156 121.277344 C 15.914062 121.742188 15.914062 121.742188 17.160156 122.339844 C 17.160156 121.988281 17.160156 121.636719 17.160156 121.277344 C 18.664062 120.550781 19.472656 120.902344 21.101562 121.242188 Z M 21.101562 121.242188 "/>
<path style=" stroke:none;fill-rule:nonzero;fill:rgb(39.607844%,36.862746%,65.098041%);fill-opacity:1;" d="M 68.082031 11.171875 C 71.550781 11.171875 75.023438 11.171875 78.597656 11.171875 C 78.597656 13.453125 78.597656 15.734375 78.597656 18.085938 C 76.769531 18.085938 74.945312 18.085938 73.0625 18.085938 C 73.0625 17.910156 73.0625 17.734375 73.0625 17.554688 C 74.707031 17.554688 76.351562 17.554688 78.042969 17.554688 C 77.863281 15.972656 77.679688 14.394531 77.492188 12.765625 C 74.75 12.589844 72.011719 12.414062 69.1875 12.234375 C 69.1875 13.988281 69.1875 15.746094 69.1875 17.554688 C 69.734375 17.730469 70.285156 17.902344 70.847656 18.085938 C 70.117188 18.085938 69.386719 18.085938 68.632812 18.085938 C 68.453125 15.804688 68.269531 13.519531 68.082031 11.171875 Z M 68.082031 11.171875 "/>
<path style=" stroke:none;fill-rule:nonzero;fill:rgb(49.803922%,47.450981%,72.941178%);fill-opacity:1;" d="M 62.546875 67.019531 C 62.730469 67.722656 62.910156 68.425781 63.101562 69.148438 C 63.316406 68.875 63.535156 68.601562 63.757812 68.316406 C 64.089844 68.066406 64.417969 67.8125 64.761719 67.554688 C 66.246094 67.71875 66.246094 67.71875 67.527344 68.085938 C 66.796875 69.664062 66.066406 71.246094 65.3125 72.871094 C 63.6875 72.273438 63.6875 72.273438 61.992188 71.277344 C 61.4375 69.648438 61.4375 69.648438 61.4375 68.085938 C 61.804688 67.734375 62.167969 67.382812 62.546875 67.019531 Z M 62.546875 67.019531 "/>
<path style=" stroke:none;fill-rule:nonzero;fill:rgb(47.058824%,45.09804%,68.235296%);fill-opacity:1;" d="M 4.980469 134.042969 C 6.082031 135 6.738281 135.804688 7.472656 137.066406 C 7.882812 137.675781 7.882812 137.675781 8.300781 138.296875 C 8.851562 138.296875 9.398438 138.296875 9.964844 138.296875 C 10.101562 138.628906 10.238281 138.957031 10.378906 139.296875 C 11.183594 140.613281 11.832031 140.929688 13.285156 141.488281 C 13.285156 141.839844 13.285156 142.191406 13.285156 142.554688 C 10.621094 141.863281 9.03125 140.898438 7.023438 139.097656 C 6.304688 138.460938 6.304688 138.460938 5.574219 137.816406 C 4.429688 136.703125 4.429688 136.703125 3.875 135.636719 C 4.238281 135.636719 4.605469 135.636719 4.980469 135.636719 C 4.980469 135.113281 4.980469 134.585938 4.980469 134.042969 Z M 4.980469 134.042969 "/>
<path style=" stroke:none;fill-rule:nonzero;fill:rgb(63.137257%,62.352943%,76.862746%);fill-opacity:1;" d="M 64.761719 4.253906 C 64.941406 4.253906 65.125 4.253906 65.3125 4.253906 C 65.355469 6.933594 65.386719 9.613281 65.40625 12.289062 C 65.414062 13.199219 65.425781 14.113281 65.4375 15.023438 C 65.460938 16.332031 65.46875 17.644531 65.476562 18.957031 C 65.484375 19.359375 65.492188 19.765625 65.5 20.183594 C 65.503906 22.59375 65.210938 24.148438 63.652344 26.0625 C 63.46875 26.0625 63.289062 26.0625 63.101562 26.0625 C 63.101562 25.1875 63.101562 24.308594 63.101562 23.402344 C 63.464844 23.402344 63.832031 23.402344 64.207031 23.402344 C 64.023438 21.472656 63.839844 19.542969 63.652344 17.554688 C 63.835938 17.554688 64.019531 17.554688 64.207031 17.554688 C 64.390625 13.164062 64.570312 8.777344 64.761719 4.253906 Z M 64.761719 4.253906 "/>
<path style=" stroke:none;fill-rule:nonzero;fill:rgb(52.156866%,48.235294%,69.411767%);fill-opacity:1;" d="M 113.46875 65.425781 C 114.652344 65.632812 114.652344 65.632812 115.683594 65.957031 C 112 69.996094 112 69.996094 109.214844 70.8125 C 107.359375 70.742188 106.21875 70.5625 104.613281 69.679688 C 104.246094 69.152344 103.882812 68.628906 103.503906 68.085938 C 104.074219 68.199219 104.074219 68.199219 104.65625 68.316406 C 105.15625 68.417969 105.65625 68.515625 106.167969 68.617188 C 106.664062 68.714844 107.15625 68.816406 107.667969 68.917969 C 109.082031 69.195312 109.082031 69.195312 110.699219 69.148438 C 110.882812 68.621094 111.066406 68.097656 111.253906 67.554688 C 112.257812 66.355469 112.257812 66.355469 113.46875 65.425781 Z M 113.46875 65.425781 "/>
<path style=" stroke:none;fill-rule:nonzero;fill:rgb(41.176471%,38.431373%,63.921571%);fill-opacity:1;" d="M 58.117188 124.46875 C 60.859375 124.46875 63.597656 124.46875 66.421875 124.46875 C 66.421875 124.644531 66.421875 124.820312 66.421875 125 C 65.988281 125.03125 65.554688 125.0625 65.109375 125.097656 C 64.546875 125.140625 63.988281 125.1875 63.410156 125.234375 C 62.851562 125.277344 62.292969 125.320312 61.71875 125.363281 C 60.367188 125.390625 60.367188 125.390625 59.777344 126.0625 C 59.648438 127.769531 59.558594 129.476562 59.492188 131.1875 C 59.441406 132.140625 59.335938 133.09375 59.226562 134.042969 C 58.859375 134.21875 58.496094 134.394531 58.117188 134.574219 C 58.117188 131.238281 58.117188 127.902344 58.117188 124.46875 Z M 58.117188 124.46875 "/>
<path style=" stroke:none;fill-rule:nonzero;fill:rgb(50.196081%,47.450981%,73.725492%);fill-opacity:1;" d="M 63.652344 93.085938 C 64.019531 93.789062 64.382812 94.488281 64.761719 95.210938 C 65.671875 95.039062 66.585938 94.863281 67.527344 94.679688 C 67.527344 95.207031 67.527344 95.734375 67.527344 96.277344 C 67.703125 97.519531 67.886719 98.761719 68.082031 100 C 67.535156 100.175781 66.984375 100.351562 66.421875 100.53125 C 64.417969 98.167969 63.46875 96.164062 63.652344 93.085938 Z M 63.652344 93.085938 "/>
<path style=" stroke:none;fill-rule:nonzero;fill:rgb(36.470589%,34.117648%,61.960787%);fill-opacity:1;" d="M 126.753906 11.703125 C 131.683594 11.703125 136.617188 11.703125 141.699219 11.703125 C 141.699219 11.878906 141.699219 12.054688 141.699219 12.234375 C 137.3125 12.410156 132.929688 12.585938 128.414062 12.765625 C 128.082031 16.585938 128.082031 16.585938 128.964844 18.085938 C 128.234375 18.085938 127.503906 18.085938 126.753906 18.085938 C 126.753906 15.980469 126.753906 13.871094 126.753906 11.703125 Z M 126.753906 11.703125 "/>
<path style=" stroke:none;fill-rule:nonzero;fill:rgb(54.901963%,52.941179%,71.764708%);fill-opacity:1;" d="M 58.949219 -0.167969 C 59.375 -0.175781 59.804688 -0.183594 60.246094 -0.191406 C 61.699219 0.0429688 62.179688 0.519531 63.101562 1.597656 C 62.917969 1.945312 62.734375 2.296875 62.546875 2.660156 C 61.816406 2.484375 61.085938 2.308594 60.332031 2.128906 C 60.332031 1.777344 60.332031 1.425781 60.332031 1.0625 C 58.058594 1.664062 55.863281 2.304688 53.691406 3.191406 C 54.820312 0.6875 56.117188 -0.152344 58.949219 -0.167969 Z M 58.949219 -0.167969 "/>
<path style=" stroke:none;fill-rule:nonzero;fill:rgb(64.313728%,63.921571%,75.686276%);fill-opacity:1;" d="M 17.832031 91.988281 C 19.773438 92.699219 21.644531 92.796875 23.695312 92.886719 C 24.273438 92.917969 24.273438 92.917969 24.859375 92.949219 C 25.796875 92.996094 26.738281 93.042969 27.675781 93.085938 C 27.675781 93.261719 27.675781 93.4375 27.675781 93.617188 C 22.683594 94.894531 18.105469 94.03125 13.285156 92.554688 C 13.285156 92.378906 13.285156 92.203125 13.285156 92.019531 C 16.269531 91.355469 16.269531 91.355469 17.832031 91.988281 Z M 17.832031 91.988281 "/>
<path style=" stroke:none;fill-rule:nonzero;fill:rgb(53.333336%,51.372552%,74.117649%);fill-opacity:1;" d="M 73.511719 85.539062 C 74.476562 85.558594 74.476562 85.558594 75.460938 85.582031 C 75.949219 85.601562 76.433594 85.621094 76.9375 85.636719 C 75.136719 87.046875 74.28125 87.351562 71.957031 87.234375 C 71.40625 87.496094 71.40625 87.496094 70.847656 87.765625 C 70.847656 87.414062 70.847656 87.0625 70.847656 86.703125 C 70.507812 86.964844 70.164062 87.230469 69.8125 87.5 C 68.632812 88.296875 68.632812 88.296875 67.527344 88.296875 C 67.34375 88.648438 67.164062 89 66.972656 89.363281 C 66.972656 88.660156 66.972656 87.957031 66.972656 87.234375 C 69.078125 85.539062 70.832031 85.460938 73.511719 85.539062 Z M 73.511719 85.539062 "/>
<path style=" stroke:none;fill-rule:nonzero;fill:rgb(46.27451%,44.313726%,66.666669%);fill-opacity:1;" d="M 43.171875 63.296875 C 43.539062 63.296875 43.902344 63.296875 44.28125 63.296875 C 45.382812 65.941406 45.523438 68.152344 45.457031 70.945312 C 45.453125 71.335938 45.445312 71.726562 45.441406 72.128906 C 45.429688 73.085938 45.410156 74.042969 45.386719 75 C 45.023438 74.824219 44.65625 74.648438 44.28125 74.46875 C 44.070312 72.917969 44.070312 72.917969 43.96875 70.945312 C 43.816406 68.363281 43.617188 65.847656 43.171875 63.296875 Z M 43.171875 63.296875 "/>
<path style=" stroke:none;fill-rule:nonzero;fill:rgb(44.705883%,41.176471%,69.803923%);fill-opacity:1;" d="M 66.246094 65.589844 C 66.882812 65.773438 66.882812 65.773438 67.527344 65.957031 C 67.710938 66.484375 67.894531 67.011719 68.082031 67.554688 C 68.445312 67.902344 68.8125 68.253906 69.1875 68.617188 C 68.640625 68.792969 68.09375 68.96875 67.527344 69.148438 C 67.164062 68.796875 66.796875 68.445312 66.421875 68.085938 C 65.308594 68.097656 65.308594 68.097656 64.207031 68.617188 C 63.234375 69.667969 63.234375 69.667969 62.546875 70.746094 C 62.878906 67.363281 62.878906 67.363281 63.792969 65.957031 C 64.761719 65.425781 64.761719 65.425781 66.246094 65.589844 Z M 66.246094 65.589844 "/>
<path style=" stroke:none;fill-rule:nonzero;fill:rgb(57.647061%,56.470591%,75.686276%);fill-opacity:1;" d="M 93.542969 9.574219 C 93.90625 9.75 94.273438 9.925781 94.648438 10.105469 C 94.679688 12.113281 94.703125 14.117188 94.71875 16.125 C 94.734375 16.980469 94.734375 16.980469 94.746094 17.851562 C 94.75 18.398438 94.753906 18.945312 94.757812 19.507812 C 94.761719 20.011719 94.769531 20.515625 94.773438 21.035156 C 94.648438 22.339844 94.648438 22.339844 93.542969 23.9375 C 92.992188 22.207031 92.960938 20.726562 93.054688 18.925781 C 93.082031 18.378906 93.109375 17.835938 93.136719 17.273438 C 93.167969 16.707031 93.199219 16.140625 93.230469 15.558594 C 93.261719 14.984375 93.289062 14.410156 93.320312 13.820312 C 93.390625 12.402344 93.464844 10.988281 93.542969 9.574219 Z M 93.542969 9.574219 "/>
<path style=" stroke:none;fill-rule:nonzero;fill:rgb(58.039218%,56.862748%,72.549021%);fill-opacity:1;" d="M 81.917969 4.253906 C 83.105469 6.539062 83.09375 7.257812 82.816406 9.707031 C 82.757812 10.28125 82.695312 10.855469 82.632812 11.445312 C 82.578125 11.878906 82.527344 12.316406 82.472656 12.765625 C 82.835938 12.765625 83.203125 12.765625 83.578125 12.765625 C 83.261719 14.292969 83.101562 14.820312 81.917969 15.957031 C 81.917969 12.097656 81.917969 8.234375 81.917969 4.253906 Z M 83.578125 11.703125 C 84.949219 11.964844 84.949219 11.964844 86.347656 12.234375 C 85.25 12.761719 85.25 12.761719 84.132812 13.296875 C 83.949219 12.769531 83.765625 12.246094 83.578125 11.703125 Z M 83.578125 11.703125 "/>
<path style=" stroke:none;fill-rule:nonzero;fill:rgb(49.411765%,47.450981%,70.588237%);fill-opacity:1;" d="M 81.917969 15.957031 C 82.285156 15.957031 82.648438 15.957031 83.027344 15.957031 C 83.054688 16.433594 83.078125 16.90625 83.109375 17.394531 C 83.148438 18.019531 83.191406 18.640625 83.234375 19.28125 C 83.273438 19.898438 83.308594 20.515625 83.351562 21.152344 C 83.558594 22.714844 83.84375 23.671875 84.6875 25 C 84.136719 25.175781 83.589844 25.351562 83.027344 25.53125 C 81.710938 23.5625 81.804688 21.847656 81.851562 19.546875 C 81.859375 18.875 81.871094 18.203125 81.878906 17.511719 C 81.894531 17 81.90625 16.484375 81.917969 15.957031 Z M 81.917969 15.957031 "/>
<path style=" stroke:none;fill-rule:nonzero;fill:rgb(47.450981%,45.490196%,67.450982%);fill-opacity:1;" d="M 121.21875 89.363281 C 121.398438 89.886719 121.582031 90.414062 121.769531 90.957031 C 121.347656 91.351562 120.925781 91.746094 120.492188 92.152344 C 119.3125 93.3125 118.308594 94.425781 117.34375 95.746094 C 116.613281 95.394531 115.882812 95.042969 115.128906 94.679688 C 115.65625 94.144531 116.1875 93.613281 116.71875 93.085938 C 117.164062 92.640625 117.164062 92.640625 117.617188 92.1875 C 118.449219 91.488281 118.449219 91.488281 119.558594 91.488281 C 119.558594 91.136719 119.558594 90.789062 119.558594 90.425781 C 120.105469 90.074219 120.652344 89.722656 121.21875 89.363281 Z M 121.21875 89.363281 "/>
<path style=" stroke:none;fill-rule:nonzero;fill:rgb(47.058824%,44.313726%,68.627453%);fill-opacity:1;" d="M 71.402344 51.0625 C 73.230469 51.0625 75.054688 51.0625 76.9375 51.0625 C 75.171875 52.195312 74.023438 52.394531 71.957031 52.660156 C 71.957031 53.363281 71.957031 54.0625 71.957031 54.789062 C 73.050781 55.136719 74.148438 55.488281 75.277344 55.851562 C 74.34375 56.449219 74.34375 56.449219 73.0625 56.914062 C 71.539062 56.449219 71.539062 56.449219 70.296875 55.851562 C 70.296875 54.621094 70.296875 53.394531 70.296875 52.128906 C 70.660156 52.128906 71.027344 52.128906 71.402344 52.128906 C 71.402344 51.777344 71.402344 51.425781 71.402344 51.0625 Z M 71.402344 51.0625 "/>
<path style=" stroke:none;fill-rule:nonzero;fill:rgb(50.980395%,48.627451%,72.156864%);fill-opacity:1;" d="M 28.78125 100.53125 C 28.78125 100.882812 28.78125 101.234375 28.78125 101.597656 C 25.667969 102.195312 25.667969 102.195312 23.800781 101.597656 C 22.476562 101.476562 21.148438 101.378906 19.824219 101.296875 C 19.117188 101.253906 18.414062 101.207031 17.6875 101.160156 C 17.148438 101.128906 16.609375 101.097656 16.050781 101.0625 C 16.050781 100.886719 16.050781 100.710938 16.050781 100.53125 C 20.371094 99.886719 24.441406 100.144531 28.78125 100.53125 Z M 28.78125 100.53125 "/>
<path style=" stroke:none;fill-rule:nonzero;fill:rgb(49.803922%,48.235294%,74.117649%);fill-opacity:1;" d="M 121.21875 47.871094 C 122.324219 48.402344 122.324219 48.402344 122.878906 48.9375 C 122.808594 50.199219 122.808594 50.199219 122.324219 51.597656 C 120.90625 52.558594 120.90625 52.558594 119.558594 53.191406 C 119.191406 52.839844 118.828125 52.488281 118.449219 52.128906 C 119 51.777344 119.546875 51.425781 120.109375 51.0625 C 119.5625 50.886719 119.015625 50.710938 118.449219 50.53125 C 119.363281 49.652344 120.277344 48.777344 121.21875 47.871094 Z M 121.21875 47.871094 "/>
<path style=" stroke:none;fill-rule:nonzero;fill:rgb(56.470591%,55.29412%,74.117649%);fill-opacity:1;" d="M 21.585938 71.277344 C 22.132812 71.628906 22.683594 71.980469 23.246094 72.339844 C 22.484375 73.136719 22.484375 73.136719 21.585938 73.9375 C 21.222656 73.9375 20.855469 73.9375 20.480469 73.9375 C 20.480469 74.289062 20.480469 74.636719 20.480469 75 C 18.679688 74.816406 18.253906 74.457031 17.019531 73.105469 C 16.539062 72.464844 16.539062 72.464844 16.050781 71.808594 C 16.78125 71.808594 17.511719 71.808594 18.265625 71.808594 C 18.265625 72.160156 18.265625 72.511719 18.265625 72.871094 C 18.996094 73.046875 19.726562 73.222656 20.480469 73.402344 C 20.84375 72.703125 21.210938 72 21.585938 71.277344 Z M 21.585938 71.277344 "/>
<path style=" stroke:none;fill-rule:nonzero;fill:rgb(51.764709%,50.196081%,72.156864%);fill-opacity:1;" d="M 102.398438 95.746094 C 100.738281 96.542969 100.738281 96.542969 99.078125 97.339844 C 98.710938 97.164062 98.347656 96.988281 97.96875 96.808594 C 97.925781 97.226562 97.878906 97.640625 97.832031 98.070312 C 97.417969 99.46875 97.417969 99.46875 96.273438 100.167969 C 95.746094 100.347656 95.746094 100.347656 95.203125 100.53125 C 95.875 97.105469 95.875 97.105469 97.867188 95.746094 C 99.707031 95.191406 100.589844 95.183594 102.398438 95.746094 Z M 102.398438 95.746094 "/>
<path style=" stroke:none;fill-rule:nonzero;fill:rgb(49.803922%,47.058824%,64.705884%);fill-opacity:1;" d="M 148.339844 132.980469 C 148.523438 132.980469 148.703125 132.980469 148.894531 132.980469 C 148.894531 137.71875 148.894531 142.457031 148.894531 147.339844 C 147.980469 147.691406 147.066406 148.042969 146.125 148.402344 C 146.398438 147.613281 146.398438 147.613281 146.679688 146.808594 C 147.226562 146.808594 147.773438 146.808594 148.339844 146.808594 C 148.339844 142.246094 148.339844 137.679688 148.339844 132.980469 Z M 148.339844 132.980469 "/>
<path style=" stroke:none;fill-rule:nonzero;fill:rgb(44.313726%,42.745098%,64.705884%);fill-opacity:1;" d="M 35.425781 41.488281 C 35.605469 41.488281 35.789062 41.488281 35.976562 41.488281 C 36.160156 44.121094 36.34375 46.753906 36.53125 49.46875 C 33.765625 48.402344 33.765625 48.402344 32.65625 47.871094 C 32.65625 47.347656 32.65625 46.820312 32.65625 46.277344 C 33.386719 46.277344 34.117188 46.277344 34.871094 46.277344 C 35.054688 44.695312 35.234375 43.117188 35.425781 41.488281 Z M 35.425781 41.488281 "/>
<path style=" stroke:none;fill-rule:nonzero;fill:rgb(52.156866%,50.196081%,68.235296%);fill-opacity:1;" d="M 37.636719 144.148438 C 38.003906 144.324219 38.367188 144.5 38.746094 144.679688 C 37.984375 145.480469 37.984375 145.480469 37.085938 146.277344 C 36.71875 146.277344 36.355469 146.277344 35.976562 146.277344 C 35.976562 146.980469 35.976562 147.679688 35.976562 148.402344 C 34.882812 148.402344 33.785156 148.402344 32.65625 148.402344 C 33.238281 146.660156 34.117188 145.953125 35.699219 145.046875 C 36.339844 144.75 36.980469 144.453125 37.636719 144.148438 Z M 37.636719 144.148438 "/>
<path style=" stroke:none;fill-rule:nonzero;fill:rgb(49.411765%,47.450981%,70.980394%);fill-opacity:1;" d="M 26.566406 74.46875 C 26.566406 76.738281 25.652344 77.917969 24.355469 79.789062 C 23.804688 79.789062 23.257812 79.789062 22.695312 79.789062 C 23.03125 78.210938 23.386719 77.457031 24.355469 76.0625 C 24.71875 76.0625 25.085938 76.0625 25.460938 76.0625 C 25.460938 75.710938 25.460938 75.363281 25.460938 75 C 25.828125 74.824219 26.191406 74.648438 26.566406 74.46875 Z M 26.566406 74.46875 "/>
<path style=" stroke:none;fill-rule:nonzero;fill:rgb(50.588238%,48.627451%,71.764708%);fill-opacity:1;" d="M 67.527344 46.277344 C 67.710938 46.628906 67.894531 46.980469 68.082031 47.339844 C 67.714844 47.339844 67.351562 47.339844 66.972656 47.339844 C 66.929688 47.84375 66.882812 48.351562 66.835938 48.871094 C 66.421875 50.53125 66.421875 50.53125 65.277344 51.261719 C 64.925781 51.371094 64.570312 51.484375 64.207031 51.597656 C 63.839844 51.246094 63.476562 50.894531 63.101562 50.53125 C 63.71875 48.75 64.066406 48.515625 65.625 47.507812 C 65.980469 47.273438 66.335938 47.042969 66.699219 46.800781 C 66.972656 46.628906 67.246094 46.457031 67.527344 46.277344 Z M 67.527344 46.277344 "/>
<path style=" stroke:none;fill-rule:nonzero;fill:rgb(46.666667%,45.882353%,69.411767%);fill-opacity:1;" d="M 59.777344 23.9375 C 60.144531 23.9375 60.507812 23.9375 60.886719 23.9375 C 60.886719 24.636719 60.886719 25.339844 60.886719 26.0625 C 61.25 26.0625 61.617188 26.0625 61.992188 26.0625 C 61.808594 26.589844 61.628906 27.117188 61.4375 27.660156 C 59.976562 27.660156 58.515625 27.660156 57.011719 27.660156 C 57.011719 27.132812 57.011719 26.605469 57.011719 26.0625 C 57.742188 26.0625 58.472656 26.0625 59.226562 26.0625 C 59.40625 25.363281 59.589844 24.660156 59.777344 23.9375 Z M 59.777344 23.9375 "/>
<path style=" stroke:none;fill-rule:nonzero;fill:rgb(55.29412%,53.333336%,72.549021%);fill-opacity:1;" d="M 121.183594 0.699219 C 121.558594 0.996094 121.9375 1.289062 122.324219 1.597656 C 122.324219 2.121094 122.324219 2.648438 122.324219 3.191406 C 122.03125 2.929688 121.738281 2.667969 121.433594 2.398438 C 119.734375 1.367188 118.644531 1.433594 116.652344 1.496094 C 116.054688 1.511719 115.457031 1.523438 114.84375 1.539062 C 114.390625 1.558594 113.9375 1.578125 113.46875 1.597656 C 114.832031 -1.023438 118.851562 -0.304688 121.183594 0.699219 Z M 121.183594 0.699219 "/>
<path style=" stroke:none;fill-rule:nonzero;fill:rgb(54.901963%,50.980395%,73.333335%);fill-opacity:1;" d="M 115.683594 52.660156 C 116.046875 52.835938 116.414062 53.011719 116.789062 53.191406 C 115.523438 55.769531 115.523438 55.769531 114.574219 56.914062 C 112.777344 57.414062 112.777344 57.414062 111.253906 57.445312 C 111.78125 56.824219 112.3125 56.203125 112.847656 55.585938 C 113.289062 55.066406 113.289062 55.066406 113.742188 54.539062 C 114.152344 54.132812 114.152344 54.132812 114.574219 53.722656 C 114.941406 53.722656 115.304688 53.722656 115.683594 53.722656 C 115.683594 53.371094 115.683594 53.019531 115.683594 52.660156 Z M 115.683594 52.660156 "/>
<path style=" stroke:none;fill-rule:nonzero;fill:rgb(58.431375%,57.254905%,75.294119%);fill-opacity:1;" d="M 86.347656 109.042969 C 88.007812 111.4375 88.738281 113.605469 88.5625 116.488281 C 88.011719 116.3125 87.464844 116.136719 86.898438 115.957031 C 86.71875 113.675781 86.535156 111.394531 86.347656 109.042969 Z M 86.347656 109.042969 "/>
<path style=" stroke:none;fill-rule:nonzero;fill:rgb(46.666667%,44.313726%,69.411767%);fill-opacity:1;" d="M 67.527344 88.296875 C 67.894531 88.648438 68.257812 89 68.632812 89.363281 C 67.722656 89.710938 66.808594 90.0625 65.867188 90.425781 C 65.683594 91.652344 65.5 92.882812 65.3125 94.148438 C 64.949219 93.796875 64.582031 93.445312 64.207031 93.085938 C 64.375 91.519531 64.578125 90.242188 65.3125 88.828125 C 66.386719 88.429688 66.386719 88.429688 67.527344 88.296875 Z M 67.527344 88.296875 "/>
<path style=" stroke:none;fill-rule:nonzero;fill:rgb(47.058824%,45.490196%,71.372551%);fill-opacity:1;" d="M 113.46875 65.425781 C 114.199219 65.601562 114.929688 65.777344 115.683594 65.957031 C 114.402344 67.1875 113.125 68.414062 111.808594 69.679688 C 111.261719 69.503906 110.710938 69.328125 110.148438 69.148438 C 111.242188 67.921875 112.339844 66.691406 113.46875 65.425781 Z M 113.46875 65.425781 "/>
<path style=" stroke:none;fill-rule:nonzero;fill:rgb(55.29412%,54.11765%,71.372551%);fill-opacity:1;" d="M 90.222656 0 C 90.222656 0.175781 90.222656 0.351562 90.222656 0.53125 C 89.523438 0.675781 88.828125 0.816406 88.109375 0.964844 C 86.300781 1.394531 85.34375 1.785156 84.132812 3.191406 C 83.585938 3.367188 83.035156 3.542969 82.472656 3.722656 C 84.09375 -0.0429688 86.332031 -0.1875 90.222656 0 Z M 90.222656 0 "/>
<path style=" stroke:none;fill-rule:nonzero;fill:rgb(55.29412%,52.941179%,72.941178%);fill-opacity:1;" d="M 78.042969 102.660156 C 80.1875 103.269531 81.921875 103.847656 83.578125 105.320312 C 83.578125 105.671875 83.578125 106.019531 83.578125 106.382812 C 83.945312 106.558594 84.308594 106.734375 84.6875 106.914062 C 83.957031 106.738281 83.226562 106.5625 82.472656 106.382812 C 82.472656 106.03125 82.472656 105.679688 82.472656 105.320312 C 81.839844 105.21875 81.839844 105.21875 81.191406 105.121094 C 79.703125 104.789062 79.703125 104.789062 78.042969 103.722656 C 78.042969 103.371094 78.042969 103.019531 78.042969 102.660156 Z M 78.042969 102.660156 "/>
<path style=" stroke:none;fill-rule:nonzero;fill:rgb(55.29412%,52.156866%,72.941178%);fill-opacity:1;" d="M 100.289062 54.722656 C 101.332031 54.753906 101.332031 54.753906 102.398438 54.789062 C 102.398438 55.3125 102.398438 55.839844 102.398438 56.382812 C 102.214844 56.03125 102.035156 55.679688 101.84375 55.320312 C 100.199219 55.917969 98.890625 56.5 97.417969 57.445312 C 97.050781 57.269531 96.6875 57.097656 96.308594 56.914062 C 96.308594 56.5625 96.308594 56.210938 96.308594 55.851562 C 98.019531 54.753906 98.363281 54.660156 100.289062 54.722656 Z M 100.289062 54.722656 "/>
<path style=" stroke:none;fill-rule:nonzero;fill:rgb(47.058824%,44.705883%,72.156864%);fill-opacity:1;" d="M 30.441406 143.085938 C 28.558594 144.199219 27.09375 144.246094 24.90625 144.148438 C 25.089844 143.621094 25.273438 143.097656 25.460938 142.554688 C 27.234375 141.703125 28.628906 142.535156 30.441406 143.085938 Z M 30.441406 143.085938 "/>
<path style=" stroke:none;fill-rule:nonzero;fill:rgb(48.627451%,46.666667%,68.235296%);fill-opacity:1;" d="M 42.066406 111.703125 C 42.433594 111.703125 42.796875 111.703125 43.171875 111.703125 C 44.875 115.105469 44.875 115.105469 44.660156 116.722656 C 44.535156 116.996094 44.410156 117.269531 44.28125 117.554688 C 44.097656 117.554688 43.914062 117.554688 43.726562 117.554688 C 43.726562 116.675781 43.726562 115.796875 43.726562 114.894531 C 43.363281 114.71875 42.996094 114.542969 42.621094 114.363281 C 42.273438 113 42.273438 113 42.066406 111.703125 Z M 42.066406 111.703125 "/>
<path style=" stroke:none;fill-rule:nonzero;fill:rgb(40.000001%,37.64706%,69.411767%);fill-opacity:1;" d="M 99.214844 99.402344 C 99.695312 99.699219 99.695312 99.699219 100.183594 100 C 100 100.351562 99.820312 100.703125 99.632812 101.0625 C 97.152344 101.734375 97.152344 101.734375 95.757812 101.0625 C 95.757812 100.710938 95.757812 100.363281 95.757812 100 C 97.664062 98.820312 97.664062 98.820312 99.214844 99.402344 Z M 99.214844 99.402344 "/>
<path style=" stroke:none;fill-rule:nonzero;fill:rgb(60.784316%,58.039218%,76.47059%);fill-opacity:1;" d="M 67.527344 65.957031 C 67.996094 66.121094 68.464844 66.285156 68.945312 66.457031 C 70.875 67.03125 72.71875 67.320312 74.722656 67.554688 C 74.722656 67.730469 74.722656 67.902344 74.722656 68.085938 C 73.835938 68.203125 72.949219 68.3125 72.058594 68.417969 C 71.566406 68.480469 71.070312 68.539062 70.5625 68.605469 C 69.1875 68.617188 69.1875 68.617188 67.527344 67.554688 C 67.527344 67.027344 67.527344 66.5 67.527344 65.957031 Z M 67.527344 65.957031 "/>
<path style=" stroke:none;fill-rule:nonzero;fill:rgb(41.960785%,39.215687%,66.666669%);fill-opacity:1;" d="M 74.722656 60.105469 C 75.089844 60.28125 75.453125 60.457031 75.832031 60.636719 C 75.648438 61.515625 75.464844 62.394531 75.277344 63.296875 C 75.640625 63.472656 76.007812 63.648438 76.382812 63.828125 C 74.515625 63.539062 73.570312 63.269531 71.957031 62.234375 C 72.503906 62.234375 73.050781 62.234375 73.617188 62.234375 C 73.980469 61.53125 74.347656 60.828125 74.722656 60.105469 Z M 74.722656 60.105469 "/>
<path style=" stroke:none;fill-rule:nonzero;fill:rgb(53.333336%,52.156866%,71.372551%);fill-opacity:1;" d="M 40.960938 133.511719 C 41.324219 133.511719 41.691406 133.511719 42.066406 133.511719 C 41.726562 135.085938 41.371094 135.839844 40.40625 137.234375 C 40.039062 137.234375 39.675781 137.234375 39.300781 137.234375 C 39.117188 137.585938 38.933594 137.9375 38.746094 138.296875 C 38.5625 137.769531 38.378906 137.246094 38.191406 136.703125 C 38.738281 136.703125 39.289062 136.703125 39.851562 136.703125 C 39.933594 136.273438 40.011719 135.847656 40.09375 135.40625 C 40.40625 134.042969 40.40625 134.042969 40.960938 133.511719 Z M 40.960938 133.511719 "/>
<path style=" stroke:none;fill-rule:nonzero;fill:rgb(59.607846%,59.215689%,78.431374%);fill-opacity:1;" d="M 110.148438 109.042969 C 110.878906 109.394531 111.609375 109.746094 112.363281 110.105469 C 110.859375 111.492188 110.207031 111.699219 108.070312 111.800781 C 107.476562 111.769531 106.882812 111.734375 106.273438 111.703125 C 106.273438 111.527344 106.273438 111.351562 106.273438 111.171875 C 107.1875 111.171875 108.101562 111.171875 109.039062 111.171875 C 109.40625 110.46875 109.769531 109.765625 110.148438 109.042969 Z M 110.148438 109.042969 "/>
<path style=" stroke:none;fill-rule:nonzero;fill:rgb(54.509807%,52.941179%,72.549021%);fill-opacity:1;" d="M 62.546875 105.851562 C 62.730469 106.203125 62.910156 106.554688 63.101562 106.914062 C 62.734375 106.914062 62.367188 106.914062 61.992188 106.914062 C 61.992188 107.96875 61.992188 109.019531 61.992188 110.105469 C 61.261719 110.105469 60.53125 110.105469 59.777344 110.105469 C 60.433594 108.3125 61.039062 107.101562 62.546875 105.851562 Z M 62.546875 105.851562 "/>
<path style=" stroke:none;fill-rule:nonzero;fill:rgb(53.725493%,51.764709%,70.980394%);fill-opacity:1;" d="M 81.367188 96.808594 C 81.546875 97.160156 81.730469 97.511719 81.917969 97.871094 C 79.914062 100.996094 79.914062 100.996094 78.042969 101.597656 C 77.863281 101.246094 77.679688 100.894531 77.492188 100.53125 C 77.855469 100.53125 78.222656 100.53125 78.597656 100.53125 C 78.597656 100.179688 78.597656 99.828125 78.597656 99.46875 C 78.964844 99.46875 79.328125 99.46875 79.703125 99.46875 C 79.875 99.128906 80.046875 98.789062 80.222656 98.4375 C 80.8125 97.339844 80.8125 97.339844 81.367188 96.808594 Z M 81.367188 96.808594 "/>
<path style=" stroke:none;fill-rule:nonzero;fill:rgb(46.666667%,45.490196%,69.411767%);fill-opacity:1;" d="M 83.578125 107.445312 C 84.308594 107.445312 85.039062 107.445312 85.792969 107.445312 C 85.976562 108.148438 86.160156 108.851562 86.347656 109.574219 C 85.617188 109.75 84.886719 109.925781 84.132812 110.105469 C 83.949219 109.230469 83.765625 108.351562 83.578125 107.445312 Z M 83.578125 107.445312 "/>
<path style=" stroke:none;fill-rule:nonzero;fill:rgb(49.803922%,47.450981%,74.117649%);fill-opacity:1;" d="M 71.957031 85.636719 C 73.601562 85.636719 75.242188 85.636719 76.9375 85.636719 C 75.210938 87.113281 74.238281 87.347656 71.957031 87.234375 C 71.40625 87.496094 71.40625 87.496094 70.847656 87.765625 C 71.214844 87.0625 71.578125 86.363281 71.957031 85.636719 Z M 71.957031 85.636719 "/>
<path style=" stroke:none;fill-rule:nonzero;fill:rgb(54.509807%,52.549022%,72.941178%);fill-opacity:1;" d="M 11.070312 71.808594 C 11.433594 71.808594 11.800781 71.808594 12.175781 71.808594 C 12.347656 72.3125 12.519531 72.816406 12.695312 73.335938 C 13.214844 74.925781 13.214844 74.925781 13.835938 76.0625 C 13.289062 76.238281 12.742188 76.414062 12.175781 76.597656 C 10.910156 74.769531 10.972656 73.945312 11.070312 71.808594 Z M 11.070312 71.808594 "/>
<path style=" stroke:none;fill-rule:nonzero;fill:rgb(55.686277%,53.333336%,72.549021%);fill-opacity:1;" d="M 12.175781 52.128906 C 12.175781 52.652344 12.175781 53.179688 12.175781 53.722656 C 10.875 54.484375 10.25 54.832031 8.71875 54.585938 C 8.398438 54.476562 8.078125 54.367188 7.75 54.253906 C 10.933594 52.128906 10.933594 52.128906 12.175781 52.128906 Z M 12.175781 52.128906 "/>
<path style=" stroke:none;fill-rule:nonzero;fill:rgb(52.156866%,49.019608%,74.901962%);fill-opacity:1;" d="M 79.703125 89.894531 C 80.433594 89.894531 81.167969 89.894531 81.917969 89.894531 C 82.101562 90.945312 82.285156 92 82.472656 93.085938 C 81.101562 92.558594 81.101562 92.558594 79.703125 92.019531 C 79.703125 91.320312 79.703125 90.617188 79.703125 89.894531 Z M 79.703125 89.894531 "/>
<path style=" stroke:none;fill-rule:nonzero;fill:rgb(58.039218%,56.470591%,76.078433%);fill-opacity:1;" d="M 70.847656 53.191406 C 71.167969 53.519531 71.488281 53.851562 71.816406 54.1875 C 72.953125 55.21875 73.855469 55.796875 75.277344 56.382812 C 73.734375 56.933594 73.136719 56.9375 71.539062 56.417969 C 71.128906 56.230469 70.71875 56.042969 70.296875 55.851562 C 70.476562 54.972656 70.660156 54.097656 70.847656 53.191406 Z M 70.847656 53.191406 "/>
<path style=" stroke:none;fill-rule:nonzero;fill:rgb(61.176473%,59.607846%,79.607844%);fill-opacity:1;" d="M 75.832031 42.019531 C 76.011719 42.019531 76.195312 42.019531 76.382812 42.019531 C 76.382812 43.25 76.382812 44.480469 76.382812 45.746094 C 77.296875 45.746094 78.210938 45.746094 79.152344 45.746094 C 79.152344 45.921875 79.152344 46.097656 79.152344 46.277344 C 77.871094 46.277344 76.59375 46.277344 75.277344 46.277344 C 74.761719 44.890625 74.640625 44.339844 75.242188 42.953125 C 75.4375 42.644531 75.628906 42.335938 75.832031 42.019531 Z M 75.832031 42.019531 "/>
<path style=" stroke:none;fill-rule:nonzero;fill:rgb(41.568628%,39.215687%,74.117649%);fill-opacity:1;" d="M 72.507812 41.488281 C 73.058594 41.664062 73.605469 41.839844 74.167969 42.019531 C 73.988281 42.898438 73.804688 43.777344 73.617188 44.679688 C 73.066406 44.503906 72.519531 44.328125 71.957031 44.148438 C 71.773438 43.621094 71.589844 43.097656 71.402344 42.554688 C 71.765625 42.203125 72.132812 41.851562 72.507812 41.488281 Z M 72.507812 41.488281 "/>
<path style=" stroke:none;fill-rule:nonzero;fill:rgb(36.862746%,34.901962%,63.921571%);fill-opacity:1;" d="M 83.027344 6.914062 C 83.390625 7.089844 83.757812 7.265625 84.132812 7.445312 C 83.949219 7.972656 83.765625 8.5 83.578125 9.042969 C 83.945312 9.042969 84.308594 9.042969 84.6875 9.042969 C 84.6875 9.394531 84.6875 9.746094 84.6875 10.105469 C 84.320312 10.105469 83.957031 10.105469 83.578125 10.105469 C 83.398438 10.984375 83.214844 11.863281 83.027344 12.765625 C 82.84375 12.765625 82.660156 12.765625 82.472656 12.765625 C 82.65625 10.835938 82.835938 8.902344 83.027344 6.914062 Z M 83.027344 6.914062 "/>
<path style=" stroke:none;fill-rule:nonzero;fill:rgb(46.666667%,44.705883%,68.235296%);fill-opacity:1;" d="M 114.574219 1.0625 C 114.574219 2.9375 114.1875 3.425781 112.914062 4.789062 C 112.550781 4.789062 112.183594 4.789062 111.808594 4.789062 C 111.945312 3.523438 111.945312 3.523438 112.363281 2.128906 C 113.503906 1.429688 113.503906 1.429688 114.574219 1.0625 Z M 114.574219 1.0625 "/>
<path style=" stroke:none;fill-rule:nonzero;fill:rgb(52.156866%,49.411765%,70.980394%);fill-opacity:1;" d="M 17.710938 122.871094 C 19.355469 123.136719 19.355469 123.136719 21.035156 123.402344 C 20.851562 124.105469 20.667969 124.808594 20.480469 125.53125 C 19.109375 125.003906 19.109375 125.003906 17.710938 124.46875 C 17.710938 123.941406 17.710938 123.414062 17.710938 122.871094 Z M 17.710938 122.871094 "/>
<path style=" stroke:none;fill-rule:nonzero;fill:rgb(43.137255%,40.784314%,66.666669%);fill-opacity:1;" d="M 33.765625 116.488281 C 33.945312 116.488281 34.128906 116.488281 34.316406 116.488281 C 34.5 117.542969 34.683594 118.597656 34.871094 119.679688 C 34.324219 120.03125 33.773438 120.382812 33.210938 120.746094 C 32.84375 120.394531 32.480469 120.042969 32.101562 119.679688 C 32.46875 119.328125 32.832031 118.980469 33.210938 118.617188 C 33.566406 117.515625 33.566406 117.515625 33.765625 116.488281 Z M 33.765625 116.488281 "/>
<path style=" stroke:none;fill-rule:nonzero;fill:rgb(56.470591%,53.725493%,74.509805%);fill-opacity:1;" d="M 3.875 57.980469 C 4.363281 59.296875 4.492188 59.925781 4.011719 61.269531 C 3.320312 62.234375 3.320312 62.234375 1.660156 62.765625 C 2.019531 60.910156 2.824219 59.558594 3.875 57.980469 Z M 3.875 57.980469 "/>
<path style=" stroke:none;fill-rule:nonzero;fill:rgb(52.156866%,50.980395%,69.803923%);fill-opacity:1;" d="M 95.757812 56.914062 C 96.914062 58.722656 96.960938 60.132812 96.863281 62.234375 C 96.5 62.058594 96.132812 61.882812 95.757812 61.703125 C 95.207031 59.921875 95.144531 58.675781 95.757812 56.914062 Z M 95.757812 56.914062 "/>
<path style=" stroke:none;fill-rule:nonzero;fill:rgb(59.607846%,58.823532%,73.725492%);fill-opacity:1;" d="M 75.832031 40.957031 C 75.648438 41.308594 75.464844 41.660156 75.277344 42.019531 C 73.816406 42.019531 72.355469 42.019531 70.847656 42.019531 C 70.847656 41.671875 70.847656 41.320312 70.847656 40.957031 C 72.546875 40.140625 74.003906 40.664062 75.832031 40.957031 Z M 75.832031 40.957031 "/>
<path style=" stroke:none;fill-rule:nonzero;fill:rgb(54.901963%,52.156866%,69.803923%);fill-opacity:1;" d="M 148.339844 142.554688 C 148.523438 142.554688 148.703125 142.554688 148.894531 142.554688 C 148.894531 144.132812 148.894531 145.710938 148.894531 147.339844 C 147.980469 147.691406 147.066406 148.042969 146.125 148.402344 C 146.308594 147.878906 146.492188 147.351562 146.679688 146.808594 C 147.226562 146.808594 147.773438 146.808594 148.339844 146.808594 C 148.339844 145.402344 148.339844 144 148.339844 142.554688 Z M 148.339844 142.554688 "/>
<path style=" stroke:none;fill-rule:nonzero;fill:rgb(37.254903%,35.686275%,58.823532%);fill-opacity:1;" d="M 128.414062 90.957031 C 128.597656 90.957031 128.777344 90.957031 128.964844 90.957031 C 128.964844 92.363281 128.964844 93.765625 128.964844 95.210938 C 128.601562 95.210938 128.234375 95.210938 127.859375 95.210938 C 127.515625 93.683594 127.515625 93.683594 127.304688 92.019531 C 127.671875 91.671875 128.035156 91.320312 128.414062 90.957031 Z M 128.414062 90.957031 "/>
<path style=" stroke:none;fill-rule:nonzero;fill:rgb(60.392159%,58.823532%,77.64706%);fill-opacity:1;" d="M 17.710938 92.019531 C 17.710938 92.371094 17.710938 92.722656 17.710938 93.085938 C 18.078125 93.261719 18.441406 93.4375 18.820312 93.617188 C 16.992188 93.265625 15.167969 92.914062 13.285156 92.554688 C 13.285156 92.378906 13.285156 92.203125 13.285156 92.019531 C 16.464844 91.421875 16.464844 91.421875 17.710938 92.019531 Z M 17.710938 92.019531 "/>
<path style=" stroke:none;fill-rule:nonzero;fill:rgb(40.392157%,37.64706%,63.921571%);fill-opacity:1;" d="M 64.207031 65.957031 C 64.621094 66.855469 64.621094 66.855469 64.761719 68.085938 C 63.6875 69.546875 63.6875 69.546875 62.546875 70.746094 C 62.960938 67.152344 62.960938 67.152344 64.207031 65.957031 Z M 64.207031 65.957031 "/>
</g>
</svg>
