<?xml version="1.0" encoding="UTF-8"?>
<svg xmlns="http://www.w3.org/2000/svg" xmlns:xlink="http://www.w3.org/1999/xlink" width="150px" height="150px" viewBox="0 0 150 150" version="1.1">
<g id="surface1">
<path style=" stroke:none;fill-rule:nonzero;fill:rgb(43.529412%,41.960785%,69.01961%);fill-opacity:1;" d="M 125.953125 28.964844 C 127.664062 30.519531 128.925781 32.25 129.960938 35.171875 C 130.351562 39.015625 130.351562 39.015625 130.535156 42.414062 C 131.167969 42.367188 131.804688 42.316406 132.457031 42.269531 C 133.296875 42.230469 134.132812 42.191406 134.972656 42.15625 C 135.390625 42.121094 135.808594 42.085938 136.238281 42.050781 C 138.21875 41.984375 139.457031 42.128906 141.125 44.128906 C 142.199219 47.152344 142.222656 48.9375 142.128906 52.5 C 142.105469 53.519531 142.085938 54.539062 142.066406 55.585938 C 142.039062 56.359375 142.011719 57.132812 141.984375 57.929688 C 142.492188 57.996094 143 58.058594 143.523438 58.125 C 146.480469 59.4375 147.6875 62.613281 149.390625 66.984375 C 150.242188 71.6875 149.871094 75.113281 148.855469 79.65625 C 146.882812 84.4375 145.101562 85.421875 141.984375 86.898438 C 142.003906 87.898438 142.003906 87.898438 142.019531 88.921875 C 142.070312 91.953125 142.097656 94.984375 142.128906 98.015625 C 142.148438 99.066406 142.167969 100.117188 142.1875 101.203125 C 142.195312 102.722656 142.195312 102.722656 142.207031 104.273438 C 142.21875 105.203125 142.230469 106.136719 142.246094 107.097656 C 141.894531 110.546875 141.195312 111.609375 139.695312 113.792969 C 138.179688 114.324219 138.179688 114.324219 136.433594 114.34375 C 135.777344 114.359375 135.121094 114.378906 134.445312 114.394531 C 133.742188 114.390625 133.035156 114.382812 132.308594 114.378906 C 131.582031 114.386719 130.855469 114.390625 130.105469 114.398438 C 128.566406 114.40625 127.03125 114.40625 125.492188 114.390625 C 123.527344 114.371094 121.558594 114.394531 119.59375 114.433594 C 117.710938 114.460938 115.832031 114.449219 113.953125 114.445312 C 113.246094 114.457031 112.542969 114.472656 111.816406 114.484375 C 106.976562 114.390625 106.976562 114.390625 104.617188 111.496094 C 103.574219 108.472656 103.257812 106.882812 103.222656 103.363281 C 103.203125 102.398438 103.1875 101.4375 103.171875 100.445312 C 103.167969 99.449219 103.164062 98.457031 103.160156 97.433594 C 103.144531 96.421875 103.132812 95.410156 103.117188 94.367188 C 103.082031 91.875 103.0625 89.386719 103.054688 86.898438 C 102.734375 86.628906 102.417969 86.363281 102.089844 86.085938 C 101.675781 85.726562 101.261719 85.367188 100.832031 84.996094 C 100.421875 84.644531 100.007812 84.292969 99.582031 83.929688 C 98.066406 82.328125 97.464844 80.449219 96.753906 77.585938 C 96.566406 76.902344 96.378906 76.21875 96.183594 75.515625 C 95.929688 70.480469 96.410156 67.378906 97.902344 63.101562 C 99.722656 59.894531 101.09375 58.453125 103.625 57.929688 C 103.574219 56.902344 103.574219 56.902344 103.523438 55.851562 C 103.398438 51.398438 103.382812 48.410156 104.554688 44.417969 C 107.660156 41.199219 110.980469 41.472656 114.503906 41.378906 C 114.859375 39.714844 114.859375 39.714844 115.21875 38.015625 C 116.023438 34.625 116.902344 32.359375 118.511719 30 C 121.023438 28.488281 123.332031 28.21875 125.953125 28.964844 Z M 109.351562 52.757812 C 109.351562 69.144531 109.351562 85.53125 109.351562 102.414062 C 115.882812 102.429688 115.882812 102.429688 122.40625 102.1875 C 122.78125 102.167969 123.15625 102.148438 123.542969 102.125 C 124.894531 102.050781 126.246094 101.972656 127.601562 101.898438 C 130.648438 101.726562 133.691406 101.554688 136.832031 101.378906 C 136.832031 85.335938 136.832031 69.289062 136.832031 52.757812 C 127.761719 52.757812 118.695312 52.757812 109.351562 52.757812 Z M 109.351562 52.757812 "/>
<path style=" stroke:none;fill-rule:nonzero;fill:rgb(42.352942%,40.392157%,68.627453%);fill-opacity:1;" d="M 64.695312 41.378906 C 66.183594 41.078125 66.183594 41.078125 67.914062 41.183594 C 68.777344 41.226562 68.777344 41.226562 69.65625 41.269531 C 70.097656 41.304688 70.539062 41.34375 70.992188 41.378906 C 71.710938 44.386719 72.136719 46.339844 72.136719 49.65625 C 74.742188 50.558594 76.121094 50.925781 78.433594 48.621094 C 80.238281 48.726562 80.878906 49.882812 82.300781 51.984375 C 83.585938 54.828125 83.585938 54.828125 83.800781 57.671875 C 83.585938 60 83.585938 60 83.015625 61.035156 C 83 65.304688 83 65.304688 83.585938 69.308594 C 84.902344 71.050781 86 71.574219 87.59375 72.414062 C 87.59375 76.511719 87.59375 80.605469 87.59375 84.828125 C 86.273438 85.511719 84.949219 86.191406 83.585938 86.898438 C 83.179688 90.921875 82.972656 93.800781 83.480469 97.824219 C 83.585938 101.378906 83.585938 101.378906 82.964844 103.25 C 82.078125 105.011719 81.277344 106.347656 80.152344 107.585938 C 78.6875 107.523438 78.6875 107.523438 77.289062 106.550781 C 75.335938 105.691406 74.0625 105.390625 72.136719 106.550781 C 72.03125 108.023438 72.03125 108.023438 71.921875 109.527344 C 71.566406 112.757812 71.566406 112.757812 70.417969 114.828125 C 68.484375 115.398438 66.628906 115.40625 64.695312 114.828125 C 63.207031 111.898438 62.976562 110.507812 62.976562 106.550781 C 60.058594 105.460938 60.058594 105.460938 57.25 106.875 C 55.535156 107.585938 55.535156 107.585938 54.410156 106.601562 C 53.230469 104.996094 52.367188 103.574219 51.527344 101.378906 C 51.5625 97.628906 51.5625 97.628906 52.097656 94.136719 C 52.21875 90.109375 52.21875 90.109375 51.527344 86.898438 C 49.519531 85.121094 49.519531 85.121094 47.519531 83.792969 C 47.519531 80.039062 47.519531 76.28125 47.519531 72.414062 C 48.15625 72.03125 48.792969 71.644531 49.453125 71.25 C 51.234375 69.878906 51.472656 69.503906 52.421875 66.207031 C 52.882812 62.921875 52.882812 62.921875 51.527344 60 C 51.457031 57.21875 51.457031 57.21875 51.527344 54.828125 C 52.09375 54.484375 52.660156 54.144531 53.246094 53.792969 C 53.246094 53.109375 53.246094 52.425781 53.246094 51.722656 C 53.621094 51.722656 54 51.722656 54.390625 51.722656 C 54.390625 51.042969 54.390625 50.359375 54.390625 49.65625 C 55.390625 49.007812 55.390625 49.007812 56.679688 48.621094 C 57.191406 49.132812 57.191406 49.132812 57.71875 49.65625 C 59.5625 51.179688 61.03125 50.332031 62.976562 49.65625 C 63.046875 48.867188 63.117188 48.078125 63.191406 47.261719 C 63.550781 44.484375 63.550781 44.484375 64.695312 41.378906 Z M 60.886719 70.167969 C 59.960938 72.859375 59.902344 74.4375 59.9375 77.585938 C 59.9375 78.460938 59.941406 79.335938 59.941406 80.238281 C 60.121094 82.878906 60.523438 84.609375 61.257812 86.898438 C 61.636719 86.898438 62.015625 86.898438 62.40625 86.898438 C 62.59375 87.921875 62.78125 88.945312 62.976562 90 C 65.699219 92.402344 68.125 92.5 70.992188 91.035156 C 73.425781 88.394531 74.644531 85.53125 75.574219 80.691406 C 75.574219 75.796875 75.359375 72.78125 73.675781 68.921875 C 71.503906 65.089844 70.667969 64.28125 67.628906 63.75 C 64.695312 63.886719 62.832031 66.269531 60.886719 70.167969 Z M 60.886719 70.167969 "/>
<path style=" stroke:none;fill-rule:nonzero;fill:rgb(41.568628%,40.000001%,68.627453%);fill-opacity:1;" d="M 29.199219 81.722656 C 32.730469 87.441406 34.683594 93.566406 35.042969 102.164062 C 35.0625 104.6875 35.066406 107.140625 34.921875 109.65625 C 34.351562 110.691406 34.351562 110.691406 32.976562 110.8125 C 32.371094 110.8125 31.761719 110.808594 31.132812 110.808594 C 30.445312 110.808594 29.757812 110.808594 29.050781 110.808594 C 28.300781 110.800781 27.550781 110.796875 26.78125 110.789062 C 26.011719 110.789062 25.242188 110.789062 24.472656 110.785156 C 22.445312 110.78125 20.417969 110.773438 18.386719 110.761719 C 16.320312 110.75 14.25 110.746094 12.183594 110.738281 C 8.121094 110.730469 4.0625 110.710938 0 110.691406 C -0.03125 108.210938 -0.0546875 105.730469 -0.0703125 103.25 C -0.0820312 102.554688 -0.0898438 101.855469 -0.101562 101.136719 C -0.132812 95.234375 0.527344 91.777344 2.289062 86.898438 C 2.667969 86.898438 3.046875 86.898438 3.433594 86.898438 C 3.8125 85.53125 4.191406 84.164062 4.582031 82.757812 C 4.957031 82.757812 5.335938 82.757812 5.726562 82.757812 C 5.726562 82.074219 5.726562 81.394531 5.726562 80.691406 C 13.421875 73.917969 21.910156 71.410156 29.199219 81.722656 Z M 29.199219 81.722656 "/>
<path style=" stroke:none;fill-rule:nonzero;fill:rgb(41.568628%,39.607844%,67.450982%);fill-opacity:1;" d="M 89.3125 5.171875 C 90.996094 4.65625 90.996094 4.65625 92.75 5.171875 C 94.171875 8.707031 94.878906 12.253906 95.53125 16.433594 C 95.707031 17.574219 95.886719 18.714844 96.070312 19.890625 C 96.25 21.074219 96.429688 22.253906 96.613281 23.46875 C 96.800781 24.664062 96.988281 25.855469 97.183594 27.085938 C 98.546875 35.945312 98.546875 35.945312 97.902344 38.277344 C 81.15625 36.984375 81.15625 36.984375 79.007812 33.101562 C 78.792969 30.066406 78.792969 30.066406 79.007812 26.898438 C 80.152344 24.957031 80.152344 24.957031 81.296875 23.792969 C 77.78125 21.320312 74.691406 20.148438 70.921875 20.238281 C 70.449219 20.246094 69.976562 20.253906 69.492188 20.261719 C 61.675781 20.648438 53.65625 25.253906 47.363281 33.84375 C 46.375 35.171875 46.375 35.171875 45.230469 35.171875 C 45.230469 35.855469 45.230469 36.539062 45.230469 37.242188 C 44.246094 38.992188 44.246094 38.992188 42.976562 40.925781 C 42.347656 41.890625 42.347656 41.890625 41.707031 42.871094 C 41.183594 43.667969 41.183594 43.667969 40.648438 44.484375 C 40.367188 44.996094 40.367188 44.996094 40.078125 45.515625 C 38.394531 45.710938 38.394531 45.710938 36.640625 45.515625 C 35.496094 43.449219 35.496094 43.449219 35.296875 41.003906 C 35.699219 35.503906 38.40625 32.359375 40.648438 28.964844 C 51.242188 14.3125 63.277344 7.332031 76.675781 9.59375 C 80.777344 10.730469 84.410156 13.449219 88.167969 16.550781 C 88.144531 15.25 88.121094 13.949219 88.097656 12.609375 C 88.03125 9.007812 88.132812 8.367188 89.3125 5.171875 Z M 89.3125 5.171875 "/>
<path style=" stroke:none;fill-rule:nonzero;fill:rgb(44.313726%,41.960785%,68.235296%);fill-opacity:1;" d="M 98.472656 107.585938 C 101.265625 109.527344 101.265625 109.527344 101.910156 110.691406 C 102.105469 113.753906 102.117188 115.320312 101.128906 117.886719 C 94.484375 129.3125 86.800781 138.425781 77.863281 142.757812 C 77.203125 143.117188 76.542969 143.476562 75.859375 143.84375 C 72.703125 145.25 69.542969 145.222656 66.304688 145.214844 C 65.671875 145.214844 65.035156 145.214844 64.382812 145.210938 C 58.207031 145.050781 53.59375 142.667969 48.089844 137.585938 C 48.101562 138.929688 48.113281 140.273438 48.128906 141.660156 C 48.140625 143.058594 48.132812 144.464844 48.089844 145.863281 C 47.519531 146.898438 47.519531 146.898438 46.460938 146.996094 C 45.289062 146.964844 44.113281 146.929688 42.9375 146.898438 C 42.363281 144.054688 41.789062 141.210938 41.222656 138.363281 C 41.058594 137.558594 40.894531 136.753906 40.726562 135.925781 C 40.570312 135.144531 40.414062 134.363281 40.253906 133.5625 C 40.113281 132.847656 39.96875 132.132812 39.820312 131.394531 C 39.503906 129.308594 39.503906 129.308594 39.503906 125.171875 C 39.125 125.171875 38.75 125.171875 38.359375 125.171875 C 38.167969 122.78125 37.980469 120.394531 37.785156 117.929688 C 41.269531 116.410156 44.621094 117.144531 48.164062 117.609375 C 49.1875 117.710938 49.1875 117.710938 50.230469 117.816406 C 50.886719 117.902344 51.539062 117.984375 52.210938 118.074219 C 53.105469 118.179688 53.105469 118.179688 54.019531 118.289062 C 55.535156 118.964844 55.535156 118.964844 56.601562 120.957031 C 57.25 123.101562 57.25 123.101562 57.25 125.238281 C 56.449219 128.046875 55.34375 128.929688 53.816406 130.34375 C 63.15625 137.128906 74.152344 134.304688 83.230469 127.824219 C 85.65625 125.929688 87.738281 123.792969 89.886719 121.035156 C 90.261719 121.035156 90.640625 121.035156 91.03125 121.035156 C 91.03125 120.351562 91.03125 119.667969 91.03125 118.964844 C 91.933594 117.324219 91.933594 117.324219 93.140625 115.472656 C 93.558594 114.835938 93.972656 114.195312 94.402344 113.539062 C 95.746094 111.523438 97.097656 109.53125 98.472656 107.585938 Z M 98.472656 107.585938 "/>
<path style=" stroke:none;fill-rule:nonzero;fill:rgb(43.529412%,41.568628%,69.803923%);fill-opacity:1;" d="M 22.902344 36.207031 C 22.902344 36.890625 22.902344 37.574219 22.902344 38.277344 C 23.230469 38.488281 23.5625 38.703125 23.902344 38.921875 C 26.144531 41.398438 27.238281 45.234375 28.054688 49.65625 C 28.328125 57.050781 27.75 62.210938 24.976562 68.015625 C 21.773438 72.976562 19.605469 73.992188 15.4375 73.832031 C 13.039062 73.289062 11.667969 71.855469 9.734375 69.308594 C 9.734375 68.628906 9.734375 67.945312 9.734375 67.242188 C 9.355469 67.242188 8.976562 67.242188 8.585938 67.242188 C 6.78125 60.8125 5.457031 55.613281 6.695312 48.355469 C 8.136719 41.71875 9.914062 38.3125 13.382812 34.847656 C 16.800781 33.230469 19.65625 33.863281 22.902344 36.207031 Z M 22.902344 36.207031 "/>
<path style=" stroke:none;fill-rule:nonzero;fill:rgb(45.09804%,43.529412%,70.980394%);fill-opacity:1;" d="M 103.625 47.585938 C 104.191406 47.925781 104.757812 48.269531 105.34375 48.621094 C 105.414062 56.636719 105.414062 56.636719 104.769531 58.964844 C 105.527344 58.964844 106.28125 58.964844 107.0625 58.964844 C 107.132812 60.140625 107.203125 61.3125 107.277344 62.523438 C 107.394531 63.738281 107.511719 64.953125 107.632812 66.207031 C 108.011719 66.546875 108.390625 66.890625 108.777344 67.242188 C 108.683594 68.5625 108.589844 69.882812 108.496094 71.246094 C 108.171875 76.5 108.140625 81.679688 108.171875 86.960938 C 108.171875 87.855469 108.175781 88.753906 108.179688 89.675781 C 108.183594 91.851562 108.195312 94.03125 108.207031 96.207031 C 108.582031 94.839844 108.960938 93.476562 109.351562 92.070312 C 109.351562 95.484375 109.351562 98.898438 109.351562 102.414062 C 108.40625 102.074219 107.460938 101.730469 106.488281 101.378906 C 106.675781 100.355469 106.867188 99.332031 107.0625 98.277344 C 106.210938 97.765625 106.210938 97.765625 105.34375 97.242188 C 105.34375 93.484375 105.34375 89.730469 105.34375 85.863281 C 104.964844 85.863281 104.585938 85.863281 104.199219 85.863281 C 104.199219 93.371094 104.199219 100.882812 104.199219 108.621094 C 104.007812 108.621094 103.820312 108.621094 103.625 108.621094 C 103.4375 101.453125 103.25 94.28125 103.054688 86.898438 C 101.542969 85.53125 100.03125 84.164062 98.472656 82.757812 C 97.363281 80.042969 97.363281 80.042969 96.753906 77.585938 C 96.566406 76.902344 96.378906 76.21875 96.183594 75.515625 C 95.929688 70.480469 96.410156 67.378906 97.902344 63.101562 C 99.722656 59.894531 101.09375 58.453125 103.625 57.929688 C 103.625 54.515625 103.625 51.101562 103.625 47.585938 Z M 103.625 47.585938 "/>
<path style=" stroke:none;fill-rule:nonzero;fill:rgb(41.568628%,39.607844%,67.450982%);fill-opacity:1;" d="M 133.96875 84.828125 C 133.96875 88.242188 133.96875 91.65625 133.96875 95.171875 C 130.964844 95.199219 127.957031 95.214844 124.949219 95.230469 C 123.925781 95.234375 122.902344 95.242188 121.878906 95.25 C 120.410156 95.261719 118.945312 95.269531 117.476562 95.273438 C 116.785156 95.28125 116.785156 95.28125 116.082031 95.289062 C 114.984375 95.289062 113.882812 95.238281 112.785156 95.171875 C 112.214844 94.136719 112.214844 94.136719 112.15625 92 C 112.164062 91.148438 112.171875 90.296875 112.179688 89.417969 C 112.183594 88.5625 112.1875 87.707031 112.195312 86.828125 C 112.199219 86.167969 112.207031 85.507812 112.214844 84.828125 C 114.851562 84.652344 117.488281 84.488281 120.128906 84.328125 C 121.023438 84.273438 121.921875 84.214844 122.820312 84.15625 C 124.109375 84.070312 125.402344 83.996094 126.695312 83.917969 C 127.292969 83.875 127.292969 83.875 127.902344 83.832031 C 130.015625 83.71875 131.917969 83.894531 133.96875 84.828125 Z M 133.96875 84.828125 "/>
<path style=" stroke:none;fill-rule:nonzero;fill:rgb(41.960785%,40.000001%,67.843139%);fill-opacity:1;" d="M 78.433594 131.378906 C 80.511719 131.765625 80.511719 131.765625 82.441406 132.414062 C 81.601562 138.230469 81.601562 138.230469 80.1875 140.042969 C 79.007812 140.691406 79.007812 140.691406 77.289062 140.691406 C 77.289062 141.371094 77.289062 142.054688 77.289062 142.757812 C 72.226562 145.871094 67.480469 144.898438 62.261719 143.46875 C 61.761719 143.347656 61.261719 143.226562 60.75 143.101562 C 58.074219 142.382812 56.046875 141.589844 53.816406 138.621094 C 54.195312 137.253906 54.574219 135.890625 54.960938 134.484375 C 55.339844 134.484375 55.71875 134.484375 56.105469 134.484375 C 56.105469 135.164062 56.105469 135.847656 56.105469 136.550781 C 56.632812 136.382812 57.160156 136.210938 57.703125 136.035156 C 60.671875 135.265625 63.636719 135.445312 66.625 135.515625 C 67.765625 135.542969 68.902344 135.566406 70.039062 135.582031 C 70.539062 135.59375 71.039062 135.605469 71.550781 135.617188 C 72.707031 135.753906 72.707031 135.753906 73.28125 134.484375 C 73.933594 134.332031 74.582031 134.183594 75.25 134.03125 C 77.3125 133.8125 77.3125 133.8125 78.433594 131.378906 Z M 78.433594 131.378906 "/>
<path style=" stroke:none;fill-rule:nonzero;fill:rgb(47.450981%,45.882353%,69.803923%);fill-opacity:1;" d="M 130.570312 61.488281 C 132.644531 62.203125 133.304688 63.144531 134.542969 66.207031 C 135.246094 69.515625 135.230469 70.847656 134.507812 74.160156 C 133.089844 77.210938 132.117188 77.917969 129.960938 78.621094 C 127.75 77.621094 127.246094 76.949219 125.953125 73.449219 C 125.703125 70.472656 125.703125 70.472656 125.953125 67.242188 C 127.378906 63.761719 128.195312 62.273438 130.570312 61.488281 Z M 130.570312 61.488281 "/>
<path style=" stroke:none;fill-rule:nonzero;fill:rgb(46.27451%,44.705883%,68.627453%);fill-opacity:1;" d="M 117.9375 63.101562 C 119.335938 65.367188 119.335938 65.367188 120.230469 68.277344 C 120.191406 71.539062 119.9375 73.589844 119.046875 76.421875 C 117.230469 78.332031 115.371094 78.238281 113.359375 77.585938 C 111.925781 75.90625 111.925781 75.90625 111.070312 73.449219 C 110.78125 69.875 110.832031 68 111.820312 64.847656 C 113.726562 61.402344 115.496094 61.84375 117.9375 63.101562 Z M 117.9375 63.101562 "/>
<path style=" stroke:none;fill-rule:nonzero;fill:rgb(42.745098%,40.784314%,67.058825%);fill-opacity:1;" d="M 98.472656 107.585938 C 101.265625 109.527344 101.265625 109.527344 101.910156 110.691406 C 102.152344 114.03125 102.085938 115.425781 100.96875 118.175781 C 100.558594 118.886719 100.148438 119.59375 99.726562 120.324219 C 99.320312 121.042969 98.914062 121.765625 98.496094 122.507812 C 97.328125 124.136719 97.328125 124.136719 95.609375 124.136719 C 95.800781 122.773438 95.988281 121.40625 96.183594 120 C 95.238281 120.683594 94.292969 121.367188 93.320312 122.070312 C 93.132812 121.386719 92.941406 120.703125 92.75 120 C 92.179688 119.660156 91.613281 119.316406 91.03125 118.964844 C 93.46875 115.070312 95.90625 111.207031 98.472656 107.585938 Z M 98.472656 107.585938 "/>
<path style=" stroke:none;fill-rule:nonzero;fill:rgb(53.725493%,51.764709%,71.764708%);fill-opacity:1;" d="M 75 9.308594 C 75 9.992188 75 10.675781 75 11.378906 C 74.605469 11.429688 74.207031 11.484375 73.800781 11.535156 C 72.015625 11.777344 70.234375 12.03125 68.453125 12.285156 C 67.828125 12.367188 67.207031 12.445312 66.5625 12.53125 C 65.675781 12.660156 65.675781 12.660156 64.769531 12.792969 C 64.21875 12.871094 63.671875 12.945312 63.105469 13.023438 C 62.476562 13.234375 62.476562 13.234375 61.832031 13.449219 C 61.644531 14.132812 61.453125 14.8125 61.257812 15.515625 C 60.125 15.515625 58.992188 15.515625 57.824219 15.515625 C 57.824219 16.199219 57.824219 16.882812 57.824219 17.585938 C 57.257812 18.269531 56.691406 18.953125 56.105469 19.65625 C 55.917969 20.679688 55.730469 21.703125 55.535156 22.757812 C 56.667969 22.757812 57.800781 22.757812 58.96875 22.757812 C 57.933594 23.859375 57.933594 23.859375 56.679688 24.828125 C 56.113281 24.484375 55.546875 24.144531 54.960938 23.792969 C 54.28125 20.625 54.28125 20.625 53.816406 17.585938 C 52.871094 17.925781 51.925781 18.269531 50.953125 18.621094 C 51.527344 16.550781 51.527344 16.550781 53.070312 15.515625 C 53.71875 15.175781 54.367188 14.835938 55.035156 14.484375 C 55.710938 14.125 56.386719 13.765625 57.082031 13.394531 C 57.703125 13.070312 58.328125 12.746094 58.96875 12.414062 C 59.585938 12.070312 59.585938 12.070312 60.214844 11.722656 C 65.113281 9.023438 69.925781 9.195312 75 9.308594 Z M 75 9.308594 "/>
<path style=" stroke:none;fill-rule:nonzero;fill:rgb(47.058824%,46.27451%,68.627453%);fill-opacity:1;" d="M 115.648438 108.621094 C 118.105469 108.621094 120.5625 108.621094 123.089844 108.621094 C 123.28125 109.304688 123.46875 109.984375 123.664062 110.691406 C 125.214844 111.183594 126.71875 111.558594 128.28125 111.851562 C 128.714844 111.941406 129.148438 112.03125 129.597656 112.125 C 130.671875 112.34375 131.746094 112.550781 132.824219 112.757812 C 132.824219 113.101562 132.824219 113.441406 132.824219 113.792969 C 130.074219 113.84375 127.320312 113.882812 124.570312 113.90625 C 123.632812 113.917969 122.699219 113.929688 121.761719 113.949219 C 120.417969 113.972656 119.074219 113.984375 117.730469 113.996094 C 117.097656 114.011719 117.097656 114.011719 116.457031 114.027344 C 115.421875 114.027344 114.390625 113.917969 113.359375 113.792969 C 112.980469 113.109375 112.601562 112.425781 112.214844 111.722656 C 113.160156 111.722656 114.101562 111.722656 115.078125 111.722656 C 115.265625 110.699219 115.453125 109.675781 115.648438 108.621094 Z M 115.648438 108.621094 "/>
<path style=" stroke:none;fill-rule:nonzero;fill:rgb(40.000001%,37.64706%,61.176473%);fill-opacity:1;" d="M 107.632812 51.722656 C 108.011719 51.722656 108.390625 51.722656 108.777344 51.722656 C 109.382812 60.242188 109.4375 68.683594 109.421875 77.261719 C 109.425781 78.585938 109.425781 79.910156 109.429688 81.273438 C 109.429688 82.558594 109.429688 83.839844 109.425781 85.164062 C 109.425781 86.894531 109.425781 86.894531 109.425781 88.65625 C 109.347656 92.265625 109.09375 95.746094 108.777344 99.308594 C 107.519531 95.894531 107.492188 94.851562 107.5 90.882812 C 107.503906 89.839844 107.503906 88.800781 107.503906 87.730469 C 107.511719 86.644531 107.519531 85.558594 107.527344 84.441406 C 107.527344 83.363281 107.527344 82.285156 107.527344 81.175781 C 107.542969 76.347656 107.679688 71.972656 108.207031 67.242188 C 108.082031 66.121094 108.082031 66.121094 107.957031 64.976562 C 107.46875 60.578125 107.589844 56.195312 107.632812 51.722656 Z M 107.632812 51.722656 "/>
<path style=" stroke:none;fill-rule:nonzero;fill:rgb(40.784314%,38.82353%,65.490198%);fill-opacity:1;" d="M 91.03125 120 C 91.828125 120.289062 91.828125 120.289062 92.640625 120.582031 C 94.472656 121.285156 94.472656 121.285156 96.183594 120 C 96.363281 122.328125 96.363281 122.328125 96.183594 125.171875 C 94.964844 127.695312 94.964844 127.695312 93.320312 129.308594 C 91.496094 128.535156 91.496094 128.535156 89.886719 127.242188 C 89.507812 127.242188 89.128906 127.242188 88.742188 127.242188 C 88.363281 127.925781 87.984375 128.605469 87.59375 129.308594 C 87.027344 129.308594 86.460938 129.308594 85.878906 129.308594 C 85.878906 128.628906 85.878906 127.945312 85.878906 127.242188 C 86.445312 127.242188 87.011719 127.242188 87.59375 127.242188 C 87.785156 126.21875 87.972656 125.191406 88.167969 124.136719 C 88.734375 123.796875 89.300781 123.457031 89.886719 123.101562 C 90.261719 122.078125 90.640625 121.054688 91.03125 120 Z M 91.03125 120 "/>
<path style=" stroke:none;fill-rule:nonzero;fill:rgb(45.882353%,44.313726%,65.098041%);fill-opacity:1;" d="M 79.652344 48.621094 C 81.328125 50.238281 82.386719 52.175781 83.585938 54.828125 C 83.96875 58.773438 83.351562 61.582031 82.441406 65.171875 C 81.6875 64.488281 80.929688 63.808594 80.152344 63.101562 C 80.339844 61.738281 80.53125 60.371094 80.726562 58.964844 C 81.101562 58.964844 81.480469 58.964844 81.871094 58.964844 C 81.679688 57.601562 81.492188 56.234375 81.296875 54.828125 C 78.984375 54.171875 76.769531 53.664062 74.425781 53.792969 C 74.425781 53.109375 74.425781 52.425781 74.425781 51.722656 C 78 48.621094 78 48.621094 79.652344 48.621094 Z M 79.652344 48.621094 "/>
<path style=" stroke:none;fill-rule:nonzero;fill:rgb(50.980395%,48.627451%,70.19608%);fill-opacity:1;" d="M 53.816406 17.585938 C 54.960938 20.691406 54.960938 20.691406 54.960938 23.792969 C 55.339844 24.132812 55.71875 24.476562 56.105469 24.828125 C 55.164062 25.511719 54.21875 26.191406 53.246094 26.898438 C 53.246094 25.871094 53.246094 24.847656 53.246094 23.792969 C 49.9375 23.550781 47.226562 23.929688 44.082031 25.863281 C 46.949219 20.300781 49.578125 17.585938 53.816406 17.585938 Z M 53.816406 17.585938 "/>
<path style=" stroke:none;fill-rule:nonzero;fill:rgb(54.901963%,53.725493%,71.372551%);fill-opacity:1;" d="M 52.671875 131.378906 C 56.964844 132.300781 56.964844 132.300781 58.585938 132.941406 C 60.082031 133.4375 61.445312 133.582031 62.96875 133.585938 C 63.773438 133.585938 63.773438 133.585938 64.589844 133.589844 C 65.421875 133.582031 65.421875 133.582031 66.269531 133.578125 C 67.085938 133.582031 67.085938 133.582031 67.917969 133.589844 C 71.28125 133.582031 74.53125 133.195312 77.863281 132.414062 C 77.671875 133.097656 77.484375 133.78125 77.289062 134.484375 C 75.957031 134.871094 74.621094 135.214844 73.28125 135.515625 C 73.09375 135.859375 72.90625 136.199219 72.710938 136.550781 C 71.800781 136.628906 70.890625 136.636719 69.980469 136.617188 C 69.421875 136.609375 68.867188 136.601562 68.292969 136.59375 C 67.117188 136.566406 65.941406 136.539062 64.765625 136.511719 C 64.207031 136.503906 63.648438 136.496094 63.074219 136.488281 C 62.5625 136.476562 62.050781 136.464844 61.523438 136.449219 C 60.128906 136.457031 60.128906 136.457031 58.890625 137.136719 C 57.824219 137.585938 57.824219 137.585938 56.105469 136.550781 C 56.105469 135.867188 56.105469 135.1875 56.105469 134.484375 C 55.644531 134.355469 55.1875 134.226562 54.710938 134.09375 C 54.226562 133.882812 53.742188 133.667969 53.246094 133.449219 C 53.054688 132.765625 52.867188 132.082031 52.671875 131.378906 Z M 52.671875 131.378906 "/>
<path style=" stroke:none;fill-rule:nonzero;fill:rgb(40.392157%,38.431373%,65.882355%);fill-opacity:1;" d="M 41.222656 33.101562 C 42.367188 35.171875 42.367188 35.171875 42.367188 38.277344 C 41.988281 38.277344 41.609375 38.277344 41.222656 38.277344 C 40.84375 40.664062 40.464844 43.054688 40.078125 45.515625 C 38.929688 45.5625 37.785156 45.558594 36.640625 45.515625 C 36.070312 44.484375 36.070312 44.484375 36.03125 41.832031 C 36.042969 41 36.054688 40.167969 36.070312 39.308594 C 36.421875 39.03125 36.777344 38.753906 37.140625 38.46875 C 38.53125 37.289062 38.53125 37.289062 39.503906 34.136719 C 40.070312 33.796875 40.636719 33.457031 41.222656 33.101562 Z M 41.222656 33.101562 "/>
<path style=" stroke:none;fill-rule:nonzero;fill:rgb(49.803922%,47.450981%,66.666669%);fill-opacity:1;" d="M 123.128906 28.773438 C 123.882812 28.75 123.882812 28.75 124.648438 28.726562 C 125.953125 28.964844 125.953125 28.964844 127.097656 31.035156 C 127.289062 32.058594 127.476562 33.082031 127.671875 34.136719 C 126.917969 33.796875 126.160156 33.457031 125.382812 33.101562 C 125.382812 32.421875 125.382812 31.738281 125.382812 31.035156 C 123.113281 31.71875 120.847656 32.398438 118.511719 33.101562 C 118.511719 33.785156 118.511719 34.46875 118.511719 35.171875 C 118.132812 35.171875 117.753906 35.171875 117.367188 35.171875 C 117.367188 36.539062 117.367188 37.902344 117.367188 39.308594 C 116.609375 39.652344 115.855469 39.992188 115.078125 40.34375 C 115.3125 35.34375 116.4375 33.210938 118.511719 30 C 120.195312 28.984375 121.367188 28.796875 123.128906 28.773438 Z M 123.128906 28.773438 "/>
<path style=" stroke:none;fill-rule:nonzero;fill:rgb(53.725493%,52.941179%,67.058825%);fill-opacity:1;" d="M 131.105469 83.792969 C 132.066406 84.089844 133.019531 84.433594 133.96875 84.828125 C 133.96875 88.242188 133.96875 91.65625 133.96875 95.171875 C 126.980469 95.171875 119.988281 95.171875 112.785156 95.171875 C 112.785156 94.832031 112.785156 94.488281 112.785156 94.136719 C 122.707031 93.625 122.707031 93.625 132.824219 93.101562 C 132.824219 91.054688 132.824219 89.007812 132.824219 86.898438 C 132.070312 86.214844 131.3125 85.53125 130.535156 84.828125 C 130.722656 84.484375 130.914062 84.144531 131.105469 83.792969 Z M 131.105469 83.792969 "/>
<path style=" stroke:none;fill-rule:nonzero;fill:rgb(48.235294%,47.058824%,67.058825%);fill-opacity:1;" d="M 26.335938 46.550781 C 26.714844 46.550781 27.089844 46.550781 27.480469 46.550781 C 28.449219 51.796875 28.449219 56.769531 27.300781 61.875 C 26.503906 64.597656 25.925781 66.363281 24.617188 68.277344 C 24.261719 66.464844 24.261719 66.464844 24.046875 64.136719 C 24.425781 62.757812 24.808594 61.378906 25.191406 60 C 25.355469 57.925781 25.515625 55.847656 25.636719 53.765625 C 25.789062 51.324219 26.046875 48.949219 26.335938 46.550781 Z M 26.335938 46.550781 "/>
<path style=" stroke:none;fill-rule:nonzero;fill:rgb(48.627451%,46.666667%,67.450982%);fill-opacity:1;" d="M 52.097656 66.207031 C 52.855469 66.546875 53.609375 66.890625 54.390625 67.242188 C 54.28125 69.179688 54.28125 69.179688 53.816406 71.378906 C 51.984375 73.078125 50.679688 73.449219 48.664062 73.449219 C 48.851562 74.578125 49.042969 75.710938 49.238281 76.875 C 49.808594 80.691406 49.808594 80.691406 49.808594 83.792969 C 49.054688 83.792969 48.296875 83.792969 47.519531 83.792969 C 47.519531 80.039062 47.519531 76.28125 47.519531 72.414062 C 48.167969 71.964844 48.816406 71.519531 49.488281 71.054688 C 50.496094 70.191406 50.496094 70.191406 51.527344 69.308594 C 51.714844 68.285156 51.90625 67.261719 52.097656 66.207031 Z M 52.097656 66.207031 "/>
<path style=" stroke:none;fill-rule:nonzero;fill:rgb(58.823532%,57.647061%,72.549021%);fill-opacity:1;" d="M 96.183594 27.929688 C 97.835938 30.398438 98.253906 32.371094 98.472656 36.207031 C 98.285156 36.890625 98.09375 37.574219 97.902344 38.277344 C 96.207031 38.160156 94.511719 38.027344 92.820312 37.886719 C 92.335938 37.855469 91.855469 37.824219 91.359375 37.789062 C 90.898438 37.75 90.4375 37.710938 89.960938 37.667969 C 89.535156 37.636719 89.109375 37.605469 88.671875 37.570312 C 87.59375 37.242188 87.59375 37.242188 86.449219 35.171875 C 89.664062 35.171875 92.875 35.171875 96.183594 35.171875 C 96.183594 32.78125 96.183594 30.394531 96.183594 27.929688 Z M 96.183594 27.929688 "/>
<path style=" stroke:none;fill-rule:nonzero;fill:rgb(50.588238%,49.803922%,66.274512%);fill-opacity:1;" d="M 50.953125 137.585938 C 52.464844 137.925781 53.976562 138.269531 55.535156 138.621094 C 55.535156 139.304688 55.535156 139.984375 55.535156 140.691406 C 59.691406 141.714844 63.847656 142.738281 68.128906 143.792969 C 68.128906 144.132812 68.128906 144.476562 68.128906 144.828125 C 62.367188 145.308594 56.851562 145.414062 51.527344 140.691406 C 51.335938 139.664062 51.148438 138.640625 50.953125 137.585938 Z M 50.953125 137.585938 "/>
<path style=" stroke:none;fill-rule:nonzero;fill:rgb(52.156866%,49.803922%,69.01961%);fill-opacity:1;" d="M 115.078125 62.070312 C 117.039062 62.363281 117.828125 62.921875 119.296875 65.367188 C 120.230469 68.277344 120.230469 68.277344 120.191406 71.507812 C 119.367188 76.089844 119.367188 76.089844 117.9375 77.585938 C 116.382812 77.835938 114.929688 77.726562 113.359375 77.585938 C 114.738281 75.09375 116.1875 73.925781 117.9375 72.414062 C 117.9375 70.023438 117.9375 67.632812 117.9375 65.171875 C 116.523438 64.148438 116.523438 64.148438 115.078125 63.101562 C 115.078125 62.761719 115.078125 62.421875 115.078125 62.070312 Z M 115.078125 62.070312 "/>
<path style=" stroke:none;fill-rule:nonzero;fill:rgb(54.901963%,53.725493%,70.980394%);fill-opacity:1;" d="M 42.367188 26.898438 C 42.929688 30.054688 42.929688 32.015625 42.367188 35.171875 C 41.421875 34.832031 40.476562 34.488281 39.503906 34.136719 C 39.351562 34.777344 39.195312 35.417969 39.039062 36.078125 C 38.359375 38.277344 38.359375 38.277344 36.640625 40.34375 C 36.261719 41.367188 35.886719 42.394531 35.496094 43.449219 C 35.257812 39.9375 35.335938 38.648438 36.5625 35.808594 C 37.027344 35.019531 37.488281 34.234375 37.964844 33.425781 C 38.421875 32.632812 38.882812 31.839844 39.355469 31.023438 C 40.648438 28.964844 40.648438 28.964844 42.367188 26.898438 Z M 42.367188 26.898438 "/>
<path style=" stroke:none;fill-rule:nonzero;fill:rgb(41.568628%,39.607844%,69.01961%);fill-opacity:1;" d="M 130.535156 64.136719 C 131.679688 67.242188 131.679688 67.242188 131.464844 70.023438 C 131.347656 70.8125 131.230469 71.601562 131.105469 72.414062 C 129.460938 73.058594 129.460938 73.058594 127.671875 73.449219 C 127.292969 72.765625 126.917969 72.082031 126.527344 71.378906 C 126.742188 68.664062 126.742188 68.664062 127.097656 66.207031 C 128.234375 65.523438 129.367188 64.839844 130.535156 64.136719 Z M 130.535156 64.136719 "/>
<path style=" stroke:none;fill-rule:nonzero;fill:rgb(43.921569%,42.352942%,61.56863%);fill-opacity:1;" d="M 112.214844 84.828125 C 118.257812 84.828125 124.304688 84.828125 130.535156 84.828125 C 130.535156 85.167969 130.535156 85.511719 130.535156 85.863281 C 124.796875 86.558594 119.109375 87.058594 113.359375 86.898438 C 113.359375 88.601562 113.359375 90.308594 113.359375 92.070312 C 112.980469 92.070312 112.601562 92.070312 112.214844 92.070312 C 112.214844 89.679688 112.214844 87.289062 112.214844 84.828125 Z M 112.214844 84.828125 "/>
<path style=" stroke:none;fill-rule:nonzero;fill:rgb(51.372552%,50.196081%,69.411767%);fill-opacity:1;" d="M 76.144531 18.621094 C 79.375 19.132812 81.847656 20.046875 84.734375 22.757812 C 85.300781 24.292969 85.300781 24.292969 85.878906 25.863281 C 85.304688 26.898438 85.304688 26.898438 83.265625 26.960938 C 82.617188 26.941406 81.96875 26.917969 81.296875 26.898438 C 81.109375 25.53125 80.917969 24.164062 80.726562 22.757812 C 79.214844 22.074219 77.703125 21.394531 76.144531 20.691406 C 76.144531 20.007812 76.144531 19.324219 76.144531 18.621094 Z M 76.144531 18.621094 "/>
<path style=" stroke:none;fill-rule:nonzero;fill:rgb(45.490196%,43.921569%,69.01961%);fill-opacity:1;" d="M 79.582031 11.378906 C 80.511719 11.703125 80.511719 11.703125 81.871094 12.414062 C 82.578125 12.777344 83.289062 13.140625 84.015625 13.511719 C 84.632812 13.832031 85.246094 14.152344 85.878906 14.484375 C 85.605469 14.953125 85.335938 15.421875 85.054688 15.90625 C 84.109375 17.515625 84.109375 17.515625 83.585938 19.65625 C 83.210938 19.3125 82.832031 18.972656 82.441406 18.621094 C 82.441406 19.304688 82.441406 19.984375 82.441406 20.691406 C 81.5 20.347656 80.554688 20.007812 79.582031 19.65625 C 79.769531 18.632812 79.957031 17.605469 80.152344 16.550781 C 79.964844 16.210938 79.773438 15.867188 79.582031 15.515625 C 79.390625 14.492188 79.203125 13.46875 79.007812 12.414062 C 79.195312 12.074219 79.386719 11.730469 79.582031 11.378906 Z M 79.582031 11.378906 "/>
<path style=" stroke:none;fill-rule:nonzero;fill:rgb(49.019608%,47.450981%,66.666669%);fill-opacity:1;" d="M 18.894531 75.515625 C 18.894531 75.859375 18.894531 76.199219 18.894531 76.550781 C 18.410156 76.75 17.929688 76.953125 17.429688 77.15625 C 16.488281 77.5625 16.488281 77.5625 15.53125 77.972656 C 14.90625 78.238281 14.28125 78.503906 13.636719 78.773438 C 11.964844 79.4375 11.964844 79.4375 10.878906 81.722656 C 9.375 81.851562 9.375 81.851562 8.015625 81.722656 C 8.015625 80.699219 8.015625 79.675781 8.015625 78.621094 C 8.921875 78.125 9.828125 77.628906 10.734375 77.132812 C 11.238281 76.859375 11.746094 76.582031 12.265625 76.296875 C 14.796875 74.960938 16.285156 74.339844 18.894531 75.515625 Z M 18.894531 75.515625 "/>
<path style=" stroke:none;fill-rule:nonzero;fill:rgb(49.411765%,47.843137%,67.058825%);fill-opacity:1;" d="M 56.773438 49.199219 C 57.238281 49.5 57.703125 49.796875 58.183594 50.109375 C 58.648438 50.40625 59.117188 50.703125 59.601562 51.007812 C 59.957031 51.246094 60.316406 51.480469 60.6875 51.722656 C 60.6875 52.40625 60.6875 53.089844 60.6875 53.792969 C 60.160156 53.757812 60.160156 53.757812 59.621094 53.71875 C 59.15625 53.703125 58.695312 53.683594 58.21875 53.664062 C 57.53125 53.628906 57.53125 53.628906 56.828125 53.589844 C 55.371094 53.628906 55.371094 53.628906 53.816406 55.863281 C 52.5625 55.472656 52.5625 55.472656 51.527344 54.828125 C 52.09375 54.484375 52.660156 54.144531 53.246094 53.792969 C 53.246094 53.109375 53.246094 52.425781 53.246094 51.722656 C 53.621094 51.722656 54 51.722656 54.390625 51.722656 C 54.390625 51.042969 54.390625 50.359375 54.390625 49.65625 C 55.535156 48.621094 55.535156 48.621094 56.773438 49.199219 Z M 56.773438 49.199219 "/>
<path style=" stroke:none;fill-rule:nonzero;fill:rgb(40.784314%,38.431373%,59.607846%);fill-opacity:1;" d="M 49.808594 120 C 50.835938 119.917969 51.859375 119.855469 52.886719 119.804688 C 53.742188 119.753906 53.742188 119.753906 54.617188 119.695312 C 55.109375 119.796875 55.601562 119.898438 56.105469 120 C 57.25 123.101562 57.25 123.101562 57.074219 125.300781 C 56.679688 127.242188 56.679688 127.242188 56.105469 128.277344 C 54.960938 128.316406 53.816406 128.320312 52.671875 128.277344 C 53.050781 127.59375 53.425781 126.910156 53.816406 126.207031 C 54.382812 126.207031 54.949219 126.207031 55.535156 126.207031 C 55.535156 124.839844 55.535156 123.476562 55.535156 122.070312 C 53.644531 122.070312 51.753906 122.070312 49.808594 122.070312 C 49.808594 121.386719 49.808594 120.703125 49.808594 120 Z M 49.808594 120 "/>
<path style=" stroke:none;fill-rule:nonzero;fill:rgb(48.235294%,47.058824%,70.588237%);fill-opacity:1;" d="M 98.472656 107.585938 C 100.960938 108.976562 100.960938 108.976562 101.910156 110.691406 C 102.050781 113.210938 102.050781 113.210938 101.910156 115.863281 C 101.339844 116.542969 100.773438 117.226562 100.191406 117.929688 C 100 116.90625 99.8125 115.882812 99.617188 114.828125 C 99.808594 114.144531 99.996094 113.460938 100.191406 112.757812 C 99.433594 113.101562 98.679688 113.441406 97.902344 113.792969 C 97.523438 112.425781 97.144531 111.0625 96.753906 109.65625 C 97.324219 108.972656 97.890625 108.289062 98.472656 107.585938 Z M 98.472656 107.585938 "/>
<path style=" stroke:none;fill-rule:nonzero;fill:rgb(46.666667%,46.27451%,65.098041%);fill-opacity:1;" d="M 69.523438 17.972656 C 70.054688 18.03125 70.582031 18.089844 71.125 18.152344 C 72.417969 18.296875 73.707031 18.453125 75 18.621094 C 75 18.960938 75 19.304688 75 19.65625 C 74.363281 19.707031 73.726562 19.757812 73.070312 19.808594 C 68.476562 20.214844 64.023438 20.710938 59.542969 22.757812 C 59.542969 21.734375 59.542969 20.710938 59.542969 19.65625 C 62.980469 17.421875 65.90625 17.503906 69.523438 17.972656 Z M 69.523438 17.972656 "/>
<path style=" stroke:none;fill-rule:nonzero;fill:rgb(39.215687%,38.431373%,61.176473%);fill-opacity:1;" d="M 125.953125 110.691406 C 127.625 110.632812 129.292969 110.59375 130.964844 110.558594 C 131.4375 110.542969 131.910156 110.527344 132.394531 110.507812 C 132.851562 110.5 133.308594 110.496094 133.78125 110.488281 C 134.203125 110.476562 134.621094 110.464844 135.054688 110.453125 C 136.429688 110.722656 137.355469 111.523438 138.550781 112.757812 C 134.140625 114.0625 130.3125 113.363281 125.953125 111.722656 C 125.953125 111.382812 125.953125 111.042969 125.953125 110.691406 Z M 125.953125 110.691406 "/>
<path style=" stroke:none;fill-rule:nonzero;fill:rgb(47.058824%,45.490196%,65.882355%);fill-opacity:1;" d="M 80.152344 103.449219 C 80.339844 104.472656 80.53125 105.496094 80.726562 106.550781 C 79.722656 107.199219 79.722656 107.199219 78.433594 107.585938 C 78.09375 107.246094 77.75 106.902344 77.398438 106.550781 C 75.523438 105.003906 74.101562 105.75 72.136719 106.550781 C 71.949219 107.234375 71.757812 107.917969 71.566406 108.621094 C 71.566406 107.9375 71.566406 107.253906 71.566406 106.550781 C 71.1875 106.210938 70.808594 105.867188 70.417969 105.515625 C 74.007812 102.464844 76.234375 101.832031 80.152344 103.449219 Z M 80.152344 103.449219 "/>
<path style=" stroke:none;fill-rule:nonzero;fill:rgb(55.29412%,54.509807%,70.588237%);fill-opacity:1;" d="M 19.464844 34.136719 C 19.464844 35.160156 19.464844 36.1875 19.464844 37.242188 C 18.519531 37.242188 17.578125 37.242188 16.601562 37.242188 C 16.601562 37.582031 16.601562 37.925781 16.601562 38.277344 C 14.335938 38.957031 12.070312 39.640625 9.734375 40.34375 C 13.035156 34.375 14.992188 33.863281 19.464844 34.136719 Z M 19.464844 34.136719 "/>
<path style=" stroke:none;fill-rule:nonzero;fill:rgb(54.509807%,52.941179%,69.411767%);fill-opacity:1;" d="M 38.359375 116.898438 C 39.707031 116.988281 41.054688 117.152344 42.402344 117.347656 C 43.140625 117.453125 43.878906 117.558594 44.640625 117.667969 C 45.5 117.796875 45.5 117.796875 46.375 117.929688 C 46.375 118.273438 46.375 118.613281 46.375 118.964844 C 45.9375 119.066406 45.503906 119.167969 45.058594 119.273438 C 44.488281 119.425781 43.917969 119.582031 43.332031 119.742188 C 42.769531 119.886719 42.203125 120.03125 41.621094 120.179688 C 39.808594 121.183594 39.3125 122.277344 38.359375 125.171875 C 38.140625 122.765625 37.949219 120.351562 37.785156 117.929688 C 37.976562 117.589844 38.164062 117.25 38.359375 116.898438 Z M 38.359375 116.898438 "/>
<path style=" stroke:none;fill-rule:nonzero;fill:rgb(47.843137%,46.27451%,67.843139%);fill-opacity:1;" d="M 97.328125 77.585938 C 97.707031 77.585938 98.082031 77.585938 98.472656 77.585938 C 98.664062 78.269531 98.851562 78.953125 99.046875 79.65625 C 100.179688 79.65625 101.3125 79.65625 102.480469 79.65625 C 102.796875 81.800781 103.054688 83.632812 103.054688 85.863281 C 100.546875 85.34375 99.136719 83.863281 97.328125 80.691406 C 97.328125 79.664062 97.328125 78.640625 97.328125 77.585938 Z M 97.328125 77.585938 "/>
<path style=" stroke:none;fill-rule:nonzero;fill:rgb(54.11765%,52.156866%,71.372551%);fill-opacity:1;" d="M 132.25 62.070312 C 132.820312 62.75 133.386719 63.433594 133.96875 64.136719 C 133.78125 65.160156 133.589844 66.1875 133.398438 67.242188 C 131.179688 66.335938 131.179688 66.335938 130.535156 65.171875 C 129.210938 65.855469 127.890625 66.539062 126.527344 67.242188 C 127.863281 61.898438 129.054688 61.714844 132.25 62.070312 Z M 132.25 62.070312 "/>
<path style=" stroke:none;fill-rule:nonzero;fill:rgb(41.568628%,39.215687%,63.921571%);fill-opacity:1;" d="M 68.703125 61.035156 C 69.082031 61.71875 69.457031 62.398438 69.847656 63.101562 C 68.335938 63.101562 66.824219 63.101562 65.265625 63.101562 C 65.265625 63.785156 65.265625 64.46875 65.265625 65.171875 C 63.945312 66.539062 62.621094 67.902344 61.257812 69.308594 C 61.257812 66.207031 61.257812 66.207031 61.832031 63.101562 C 64.097656 60.816406 66.144531 60.683594 68.703125 61.035156 Z M 68.703125 61.035156 "/>
<path style=" stroke:none;fill-rule:nonzero;fill:rgb(51.372552%,50.196081%,67.843139%);fill-opacity:1;" d="M 52.671875 98.277344 C 52.859375 98.957031 53.050781 99.640625 53.246094 100.34375 C 53.621094 100.34375 54 100.34375 54.390625 100.34375 C 54.648438 100.835938 54.910156 101.328125 55.175781 101.832031 C 56.238281 103.675781 56.964844 104.035156 58.398438 104.484375 C 58.398438 105.164062 58.398438 105.847656 58.398438 106.550781 C 57.214844 107.457031 57.214844 107.457031 55.535156 107.585938 C 54.019531 105.847656 52.710938 103.816406 51.527344 101.378906 C 51.527344 100.695312 51.527344 100.015625 51.527344 99.308594 C 51.90625 98.96875 52.28125 98.628906 52.671875 98.277344 Z M 52.671875 98.277344 "/>
<path style=" stroke:none;fill-rule:nonzero;fill:rgb(53.725493%,52.941179%,72.156864%);fill-opacity:1;" d="M 103.625 47.585938 C 104.191406 47.925781 104.757812 48.269531 105.34375 48.621094 C 105.507812 57.488281 105.507812 57.488281 104.199219 61.035156 C 102.5 60.523438 102.5 60.523438 100.761719 60 C 102.480469 57.929688 102.480469 57.929688 103.625 57.929688 C 103.625 54.515625 103.625 51.101562 103.625 47.585938 Z M 103.625 47.585938 "/>
<path style=" stroke:none;fill-rule:nonzero;fill:rgb(47.843137%,46.27451%,63.529414%);fill-opacity:1;" d="M 64.121094 110.691406 C 66.199219 111.03125 68.277344 111.371094 70.417969 111.722656 C 70.417969 112.75 70.417969 113.773438 70.417969 114.828125 C 68.53125 114.828125 66.640625 114.828125 64.695312 114.828125 C 64.503906 113.460938 64.316406 112.097656 64.121094 110.691406 Z M 64.121094 110.691406 "/>
<path style=" stroke:none;fill-rule:nonzero;fill:rgb(40.000001%,38.039216%,62.7451%);fill-opacity:1;" d="M 80.726562 90 C 81.292969 90 81.859375 90 82.441406 90 C 83.832031 96.503906 83.832031 96.503906 83.015625 100.34375 C 82.828125 99.660156 82.636719 98.980469 82.441406 98.277344 C 81.875 98.789062 81.875 98.789062 81.296875 99.308594 C 81.226562 98.648438 81.15625 97.988281 81.082031 97.304688 C 80.90625 96.25 80.90625 96.25 80.726562 95.171875 C 80.347656 94.832031 79.96875 94.488281 79.582031 94.136719 C 79.957031 92.773438 80.335938 91.40625 80.726562 90 Z M 80.726562 90 "/>
<path style=" stroke:none;fill-rule:nonzero;fill:rgb(49.019608%,48.627451%,65.490198%);fill-opacity:1;" d="M 29.769531 83.792969 C 32.832031 87.230469 33.476562 91.242188 34.351562 97.242188 C 33.785156 97.925781 33.21875 98.605469 32.632812 99.308594 C 32.585938 98.628906 32.539062 97.945312 32.492188 97.242188 C 32.003906 93.71875 31.199219 90.878906 30.25 87.691406 C 29.769531 85.863281 29.769531 85.863281 29.769531 83.792969 Z M 29.769531 83.792969 "/>
<path style=" stroke:none;fill-rule:nonzero;fill:rgb(43.137255%,40.784314%,70.588237%);fill-opacity:1;" d="M 117.367188 65.171875 C 117.746094 65.855469 118.121094 66.539062 118.511719 67.242188 C 118.296875 70.992188 118.296875 70.992188 117.9375 74.484375 C 116.804688 74.824219 115.671875 75.164062 114.503906 75.515625 C 114.125 74.152344 113.75 72.785156 113.359375 71.378906 C 114.679688 71.378906 116.003906 71.378906 117.367188 71.378906 C 117.261719 70.738281 117.152344 70.097656 117.042969 69.441406 C 116.792969 67.242188 116.792969 67.242188 117.367188 65.171875 Z M 117.367188 65.171875 "/>
<path style=" stroke:none;fill-rule:nonzero;fill:rgb(42.745098%,41.176471%,64.313728%);fill-opacity:1;" d="M 14.3125 39.308594 C 13.835938 39.945312 13.835938 39.945312 13.351562 40.59375 C 12.9375 41.152344 12.523438 41.710938 12.09375 42.285156 C 11.683594 42.835938 11.269531 43.386719 10.847656 43.957031 C 9.6875 45.515625 9.6875 45.515625 8.585938 47.585938 C 8.230469 45.710938 8.230469 45.710938 8.015625 43.449219 C 9.632812 39.0625 11.5 37.617188 14.3125 39.308594 Z M 14.3125 39.308594 "/>
<path style=" stroke:none;fill-rule:nonzero;fill:rgb(47.058824%,46.27451%,63.137257%);fill-opacity:1;" d="M 79.007812 26.898438 C 79.195312 26.898438 79.386719 26.898438 79.582031 26.898438 C 79.582031 28.601562 79.582031 30.308594 79.582031 32.070312 C 81.660156 32.410156 83.738281 32.75 85.878906 33.101562 C 85.878906 34.128906 85.878906 35.152344 85.878906 36.207031 C 84.945312 36.089844 84.015625 35.957031 83.085938 35.820312 C 82.570312 35.746094 82.050781 35.675781 81.515625 35.601562 C 80.152344 35.171875 80.152344 35.171875 79.007812 33.101562 C 78.9375 29.871094 78.9375 29.871094 79.007812 26.898438 Z M 79.007812 26.898438 "/>
<path style=" stroke:none;fill-rule:nonzero;fill:rgb(47.058824%,45.09804%,67.450982%);fill-opacity:1;" d="M 108.207031 42.414062 C 108.097656 44.289062 108.097656 44.289062 107.632812 46.550781 C 106.167969 48.363281 106.167969 48.363281 104.769531 49.65625 C 104.582031 48.289062 104.394531 46.925781 104.199219 45.515625 C 106.273438 42.414062 106.273438 42.414062 108.207031 42.414062 Z M 108.207031 42.414062 "/>
<path style=" stroke:none;fill-rule:nonzero;fill:rgb(39.215687%,37.64706%,65.098041%);fill-opacity:1;" d="M 96.753906 110.691406 C 97.132812 111.03125 97.511719 111.371094 97.902344 111.722656 C 98.660156 112.089844 99.425781 112.4375 100.191406 112.757812 C 100.191406 114.125 100.191406 115.488281 100.191406 116.898438 C 99.8125 116.898438 99.433594 116.898438 99.046875 116.898438 C 98.855469 117.578125 98.667969 118.261719 98.472656 118.964844 C 98.09375 117.941406 97.71875 116.917969 97.328125 115.863281 C 96.761719 115.863281 96.195312 115.863281 95.609375 115.863281 C 95.988281 114.15625 96.367188 112.449219 96.753906 110.691406 Z M 96.753906 110.691406 "/>
<path style=" stroke:none;fill-rule:nonzero;fill:rgb(41.960785%,40.000001%,61.56863%);fill-opacity:1;" d="M 2.863281 87.929688 C 3.242188 89.296875 3.617188 90.660156 4.007812 92.070312 C 3.734375 92.496094 3.464844 92.921875 3.183594 93.363281 C 2.195312 95.359375 1.964844 96.707031 1.71875 99.308594 C 1.339844 99.308594 0.960938 99.308594 0.574219 99.308594 C 0.363281 95.238281 0.398438 93.554688 1.71875 90.128906 C 2.09375 89.402344 2.472656 88.679688 2.863281 87.929688 Z M 2.863281 87.929688 "/>
<path style=" stroke:none;fill-rule:nonzero;fill:rgb(40.784314%,38.431373%,69.411767%);fill-opacity:1;" d="M 48.089844 22.757812 C 50.023438 22.628906 50.023438 22.628906 52.097656 22.757812 C 52.476562 23.441406 52.855469 24.125 53.246094 24.828125 C 49.453125 27.929688 49.453125 27.929688 47.519531 27.929688 C 47.707031 26.222656 47.898438 24.515625 48.089844 22.757812 Z M 48.089844 22.757812 "/>
<path style=" stroke:none;fill-rule:nonzero;fill:rgb(43.921569%,43.921569%,62.352943%);fill-opacity:1;" d="M 33.777344 97.242188 C 34.921875 99.308594 34.921875 99.308594 35.035156 101.773438 C 35.023438 102.710938 35.007812 103.648438 34.996094 104.613281 C 34.984375 105.554688 34.972656 106.496094 34.964844 107.464844 C 34.949219 108.1875 34.9375 108.910156 34.921875 109.65625 C 34.167969 109.996094 33.414062 110.339844 32.632812 110.691406 C 33.011719 106.25 33.390625 101.8125 33.777344 97.242188 Z M 33.777344 97.242188 "/>
<path style=" stroke:none;fill-rule:nonzero;fill:rgb(53.725493%,52.549022%,70.588237%);fill-opacity:1;" d="M 9.734375 67.242188 C 10.675781 67.242188 11.621094 67.242188 12.59375 67.242188 C 12.59375 67.925781 12.59375 68.605469 12.59375 69.308594 C 12.960938 69.609375 13.328125 69.90625 13.703125 70.214844 C 14.886719 71.378906 14.886719 71.378906 15.457031 73.449219 C 13.203125 72.867188 11.59375 71.710938 9.734375 69.308594 C 9.734375 68.628906 9.734375 67.945312 9.734375 67.242188 Z M 9.734375 67.242188 "/>
<path style=" stroke:none;fill-rule:nonzero;fill:rgb(49.803922%,48.627451%,67.058825%);fill-opacity:1;" d="M 131.105469 83.792969 C 132.066406 84.089844 133.019531 84.433594 133.96875 84.828125 C 133.96875 87.898438 133.96875 90.972656 133.96875 94.136719 C 133.589844 93.796875 133.214844 93.457031 132.824219 93.101562 C 132.824219 91.054688 132.824219 89.007812 132.824219 86.898438 C 132.070312 86.214844 131.3125 85.53125 130.535156 84.828125 C 130.722656 84.484375 130.914062 84.144531 131.105469 83.792969 Z M 131.105469 83.792969 "/>
<path style=" stroke:none;fill-rule:nonzero;fill:rgb(49.019608%,47.058824%,68.627453%);fill-opacity:1;" d="M 42.367188 26.898438 C 42.929688 30.054688 42.929688 32.015625 42.367188 35.171875 C 41.609375 34.832031 40.855469 34.488281 40.078125 34.136719 C 40.253906 31.679688 40.253906 31.679688 40.648438 28.964844 C 41.214844 28.28125 41.78125 27.601562 42.367188 26.898438 Z M 42.367188 26.898438 "/>
<path style=" stroke:none;fill-rule:nonzero;fill:rgb(40.000001%,38.431373%,63.529414%);fill-opacity:1;" d="M 53.816406 17.585938 C 54.960938 20.691406 54.960938 20.691406 54.960938 23.792969 C 55.339844 24.132812 55.71875 24.476562 56.105469 24.828125 C 55.351562 24.828125 54.59375 24.828125 53.816406 24.828125 C 53.816406 23.804688 53.816406 22.78125 53.816406 21.722656 C 52.871094 21.382812 51.925781 21.042969 50.953125 20.691406 C 50.953125 20.007812 50.953125 19.324219 50.953125 18.621094 C 52.097656 17.585938 52.097656 17.585938 53.816406 17.585938 Z M 53.816406 17.585938 "/>
<path style=" stroke:none;fill-rule:nonzero;fill:rgb(51.764709%,49.803922%,65.882355%);fill-opacity:1;" d="M 96.183594 27.929688 C 97.835938 30.398438 98.253906 32.371094 98.472656 36.207031 C 98.285156 36.890625 98.09375 37.574219 97.902344 38.277344 C 97.523438 38.277344 97.144531 38.277344 96.753906 38.277344 C 95.835938 34.949219 96.148438 31.617188 96.183594 27.929688 Z M 96.183594 27.929688 "/>
<path style=" stroke:none;fill-rule:nonzero;fill:rgb(54.11765%,52.941179%,67.843139%);fill-opacity:1;" d="M 96.183594 110.691406 C 96.183594 113.902344 95.875 115.191406 95.039062 117.929688 C 94.472656 117.929688 93.90625 117.929688 93.320312 117.929688 C 93.320312 118.613281 93.320312 119.296875 93.320312 120 C 92.566406 119.660156 91.808594 119.316406 91.03125 118.964844 C 91.355469 118.453125 91.679688 117.945312 92.011719 117.417969 C 92.433594 116.753906 92.851562 116.09375 93.285156 115.410156 C 93.703125 114.75 94.121094 114.089844 94.554688 113.410156 C 95.109375 112.527344 95.660156 111.632812 96.183594 110.691406 Z M 96.183594 110.691406 "/>
<path style=" stroke:none;fill-rule:nonzero;fill:rgb(40.784314%,39.215687%,62.7451%);fill-opacity:1;" d="M 143.128906 78.621094 C 143.886719 78.621094 144.640625 78.621094 145.417969 78.621094 C 145.417969 79.304688 145.417969 79.984375 145.417969 80.691406 C 145.988281 80.691406 146.554688 80.691406 147.136719 80.691406 C 146.757812 82.054688 146.382812 83.421875 145.992188 84.828125 C 145.425781 84.828125 144.859375 84.828125 144.273438 84.828125 C 144.273438 83.804688 144.273438 82.78125 144.273438 81.722656 C 143.898438 81.382812 143.519531 81.042969 143.128906 80.691406 C 143.128906 80.007812 143.128906 79.324219 143.128906 78.621094 Z M 143.128906 78.621094 "/>
<path style=" stroke:none;fill-rule:nonzero;fill:rgb(49.411765%,48.627451%,67.450982%);fill-opacity:1;" d="M 65.265625 63.101562 C 67.722656 63.101562 70.179688 63.101562 72.710938 63.101562 C 72.519531 64.46875 72.332031 65.835938 72.136719 67.242188 C 71.855469 66.921875 71.570312 66.601562 71.277344 66.273438 C 69.285156 64.742188 67.417969 64.527344 65.265625 64.136719 C 65.265625 63.796875 65.265625 63.457031 65.265625 63.101562 Z M 65.265625 63.101562 "/>
<path style=" stroke:none;fill-rule:nonzero;fill:rgb(42.745098%,40.784314%,61.176473%);fill-opacity:1;" d="M 75.574219 73.449219 C 76.46875 74.546875 76.46875 74.546875 77.289062 76.550781 C 77.109375 80.367188 77.109375 80.367188 76.71875 83.792969 C 75.574219 81.722656 75.574219 81.722656 75.460938 79.710938 C 75.496094 77.625 75.535156 75.535156 75.574219 73.449219 Z M 75.574219 73.449219 "/>
<path style=" stroke:none;fill-rule:nonzero;fill:rgb(47.450981%,45.882353%,71.764708%);fill-opacity:1;" d="M 50.953125 20.691406 C 51.898438 21.03125 52.84375 21.371094 53.816406 21.722656 C 53.816406 22.75 53.816406 23.773438 53.816406 24.828125 C 54.382812 25.167969 54.949219 25.511719 55.535156 25.863281 C 54.777344 26.203125 54.023438 26.542969 53.246094 26.898438 C 53.246094 25.871094 53.246094 24.847656 53.246094 23.792969 C 52.300781 23.792969 51.355469 23.792969 50.382812 23.792969 C 50.570312 22.769531 50.757812 21.746094 50.953125 20.691406 Z M 50.953125 20.691406 "/>
<path style=" stroke:none;fill-rule:nonzero;fill:rgb(54.509807%,53.725493%,70.980394%);fill-opacity:1;" d="M 100.191406 109.65625 C 100.757812 109.996094 101.324219 110.339844 101.910156 110.691406 C 102.015625 113.148438 102.015625 113.148438 101.910156 115.863281 C 101.339844 116.542969 100.773438 117.226562 100.191406 117.929688 C 99.5625 114.527344 99.734375 113.054688 100.191406 109.65625 Z M 100.191406 109.65625 "/>
<path style=" stroke:none;fill-rule:nonzero;fill:rgb(53.333336%,52.156866%,70.19608%);fill-opacity:1;" d="M 4.582031 82.757812 C 5.148438 82.757812 5.714844 82.757812 6.296875 82.757812 C 6.296875 83.441406 6.296875 84.125 6.296875 84.828125 C 5.917969 84.828125 5.542969 84.828125 5.152344 84.828125 C 5.152344 85.511719 5.152344 86.191406 5.152344 86.898438 C 4.785156 87.003906 4.421875 87.109375 4.042969 87.21875 C 3.652344 87.453125 3.265625 87.6875 2.863281 87.929688 C 2.671875 88.957031 2.484375 89.980469 2.289062 91.035156 C 2.101562 90.351562 1.914062 89.667969 1.71875 88.964844 C 1.90625 88.28125 2.09375 87.601562 2.289062 86.898438 C 2.667969 86.898438 3.046875 86.898438 3.433594 86.898438 C 3.8125 85.53125 4.191406 84.164062 4.582031 82.757812 Z M 4.582031 82.757812 "/>
<path style=" stroke:none;fill-rule:nonzero;fill:rgb(55.29412%,53.725493%,71.764708%);fill-opacity:1;" d="M 72.710938 67.242188 C 74.351562 67.835938 74.921875 68.132812 76.144531 70.34375 C 75.929688 73.058594 75.929688 73.058594 75.574219 75.515625 C 74.421875 72.867188 73.496094 70.296875 72.710938 67.242188 Z M 72.710938 67.242188 "/>
<path style=" stroke:none;fill-rule:nonzero;fill:rgb(44.313726%,43.137255%,60.392159%);fill-opacity:1;" d="M 126.527344 31.035156 C 129.425781 33.652344 129.425781 33.652344 130.535156 37.242188 C 130.34375 38.605469 130.15625 39.972656 129.960938 41.378906 C 128.828125 37.964844 127.695312 34.550781 126.527344 31.035156 Z M 126.527344 31.035156 "/>
<path style=" stroke:none;fill-rule:nonzero;fill:rgb(39.607844%,38.431373%,60.784316%);fill-opacity:1;" d="M 53.246094 24.828125 C 53.054688 25.851562 52.867188 26.875 52.671875 27.929688 C 50.917969 29.160156 50.917969 29.160156 49.238281 30 C 49.046875 29.316406 48.859375 28.632812 48.664062 27.929688 C 51.957031 24.828125 51.957031 24.828125 53.246094 24.828125 Z M 53.246094 24.828125 "/>
<path style=" stroke:none;fill-rule:nonzero;fill:rgb(51.764709%,50.588238%,68.235296%);fill-opacity:1;" d="M 93.894531 10.34375 C 94.972656 13.722656 95.320312 16.84375 95.609375 20.691406 C 95.042969 21.203125 95.042969 21.203125 94.464844 21.722656 C 93.328125 18.707031 93.328125 17.457031 93.535156 13.707031 C 93.652344 12.597656 93.769531 11.488281 93.894531 10.34375 Z M 93.894531 10.34375 "/>
<path style=" stroke:none;fill-rule:nonzero;fill:rgb(40.000001%,38.431373%,62.352943%);fill-opacity:1;" d="M 40.078125 120 C 40.644531 120.339844 41.210938 120.683594 41.792969 121.035156 C 41.417969 123.082031 41.039062 125.132812 40.648438 127.242188 C 40.269531 127.242188 39.894531 127.242188 39.503906 127.242188 C 39.144531 124.785156 39.144531 124.785156 38.929688 122.070312 C 39.308594 121.386719 39.6875 120.703125 40.078125 120 Z M 40.078125 120 "/>
<path style=" stroke:none;fill-rule:nonzero;fill:rgb(38.431373%,36.470589%,57.647061%);fill-opacity:1;" d="M 87.023438 74.484375 C 87.210938 74.484375 87.402344 74.484375 87.59375 74.484375 C 87.59375 77.554688 87.59375 80.628906 87.59375 83.792969 C 86.839844 83.453125 86.082031 83.109375 85.304688 82.757812 C 85.871094 80.027344 86.4375 77.296875 87.023438 74.484375 Z M 87.023438 74.484375 "/>
<path style=" stroke:none;fill-rule:nonzero;fill:rgb(40.000001%,38.039216%,61.56863%);fill-opacity:1;" d="M 81.296875 62.070312 C 82.441406 65.171875 82.441406 65.171875 82.441406 68.277344 C 81.308594 68.277344 80.175781 68.277344 79.007812 68.277344 C 79.578125 65.179688 80.011719 64.191406 81.296875 62.070312 Z M 81.296875 62.070312 "/>
<path style=" stroke:none;fill-rule:nonzero;fill:rgb(50.980395%,49.803922%,68.235296%);fill-opacity:1;" d="M 83.015625 82.757812 C 84.527344 83.101562 86.039062 83.441406 87.59375 83.792969 C 85.898438 85.5 84.355469 86.320312 82.441406 86.898438 C 82.632812 85.53125 82.820312 84.164062 83.015625 82.757812 Z M 83.015625 82.757812 "/>
<path style=" stroke:none;fill-rule:nonzero;fill:rgb(54.901963%,54.11765%,67.450982%);fill-opacity:1;" d="M 147.710938 64.136719 C 149.152344 66.179688 149.421875 67.207031 149.820312 70.539062 C 149.878906 71.5 149.9375 72.460938 150 73.449219 C 149.621094 73.449219 149.246094 73.449219 148.855469 73.449219 C 148.855469 72.082031 148.855469 70.71875 148.855469 69.308594 C 148.476562 69.308594 148.097656 69.308594 147.710938 69.308594 C 147.710938 67.601562 147.710938 65.898438 147.710938 64.136719 Z M 147.710938 64.136719 "/>
<path style=" stroke:none;fill-rule:nonzero;fill:rgb(42.352942%,40.784314%,61.56863%);fill-opacity:1;" d="M 69.847656 41.378906 C 70.226562 41.378906 70.601562 41.378906 70.992188 41.378906 C 71.179688 43.769531 71.371094 46.160156 71.566406 48.621094 C 71 48.28125 70.429688 47.9375 69.847656 47.585938 C 70.035156 46.5625 70.226562 45.539062 70.417969 44.484375 C 70.042969 44.484375 69.664062 44.484375 69.273438 44.484375 C 69.464844 43.457031 69.652344 42.433594 69.847656 41.378906 Z M 69.847656 41.378906 "/>
</g>
</svg>
