<?xml version="1.0" encoding="UTF-8"?>
<svg xmlns="http://www.w3.org/2000/svg" xmlns:xlink="http://www.w3.org/1999/xlink" width="150px" height="150px" viewBox="0 0 150 150" version="1.1">
<g id="surface1">
<path style=" stroke:none;fill-rule:nonzero;fill:rgb(42.352942%,40.784314%,70.19608%);fill-opacity:1;" d="M 80.355469 2.289062 C 82.609375 3.910156 84.089844 5.859375 84.960938 8.605469 C 85.273438 12.273438 85.285156 15.34375 83.203125 18.441406 C 82.5 18.964844 81.789062 19.480469 81.078125 19.992188 C 79.742188 21.175781 79.171875 21.765625 78.824219 23.582031 C 78.828125 25.25 78.953125 26.851562 79.136719 28.507812 C 79.207031 29.363281 79.207031 29.363281 79.277344 30.234375 C 79.394531 31.636719 79.53125 33.03125 79.6875 34.425781 C 80.035156 34.5 80.378906 34.574219 80.738281 34.648438 C 88.644531 36.390625 94.246094 40.511719 98.746094 47.5625 C 100.347656 50.5625 101.367188 53.722656 101.367188 57.171875 C 101.867188 57.15625 102.371094 57.140625 102.886719 57.125 C 104.777344 57.070312 106.664062 57.03125 108.554688 57.003906 C 109.367188 56.988281 110.179688 56.96875 110.992188 56.941406 C 116.707031 56.757812 121.554688 57.09375 125.9375 61.34375 C 129.421875 65.195312 129.660156 69.21875 129.566406 74.308594 C 129.558594 74.847656 129.554688 75.390625 129.550781 75.945312 C 129.535156 77.269531 129.515625 78.59375 129.492188 79.917969 C 130.101562 79.894531 130.710938 79.875 131.339844 79.851562 C 135.769531 79.984375 140.117188 81.910156 143.554688 84.835938 C 143.554688 85.242188 143.554688 85.648438 143.554688 86.066406 C 143.941406 86.066406 144.328125 86.066406 144.726562 86.066406 C 145.695312 87.257812 145.695312 87.257812 146.777344 88.871094 C 147.132812 89.390625 147.492188 89.910156 147.859375 90.449219 C 150.597656 95.429688 150.914062 101.835938 149.617188 107.371094 C 149.066406 108.777344 148.4375 109.992188 147.65625 111.269531 C 147.371094 111.742188 147.085938 112.214844 146.792969 112.703125 C 143.886719 117.046875 140.101562 119.914062 135.203125 121.335938 C 133.238281 121.679688 131.476562 121.75 129.492188 121.722656 C 129.507812 122.636719 129.507812 122.636719 129.519531 123.570312 C 129.550781 125.851562 129.570312 128.132812 129.589844 130.414062 C 129.597656 131.398438 129.609375 132.382812 129.625 133.367188 C 129.644531 134.789062 129.65625 136.210938 129.664062 137.628906 C 129.671875 138.066406 129.683594 138.5 129.691406 138.949219 C 129.691406 142.808594 128.785156 145.574219 126.460938 148.566406 C 124.386719 150.363281 123.34375 150.390625 120.675781 150.402344 C 120.265625 150.410156 119.859375 150.414062 119.4375 150.421875 C 118.070312 150.4375 116.707031 150.433594 115.339844 150.425781 C 114.359375 150.433594 113.378906 150.441406 112.398438 150.453125 C 109.734375 150.472656 107.074219 150.476562 104.410156 150.472656 C 102.1875 150.472656 99.964844 150.480469 97.738281 150.488281 C 92.492188 150.507812 87.246094 150.511719 82 150.503906 C 76.589844 150.496094 71.183594 150.515625 65.773438 150.550781 C 61.125 150.582031 56.480469 150.59375 51.832031 150.585938 C 49.058594 150.585938 46.285156 150.589844 43.507812 150.613281 C 40.898438 150.636719 38.289062 150.632812 35.679688 150.613281 C 34.722656 150.609375 33.769531 150.613281 32.8125 150.628906 C 25.632812 150.722656 25.632812 150.722656 23.128906 148.949219 C 20.074219 145.464844 19.832031 142.402344 19.863281 137.8125 C 19.867188 137.351562 19.867188 136.890625 19.867188 136.414062 C 19.871094 134.949219 19.878906 133.484375 19.886719 132.019531 C 19.886719 131.023438 19.890625 130.027344 19.894531 129.03125 C 19.898438 126.59375 19.910156 124.15625 19.921875 121.722656 C 19.5 121.695312 19.078125 121.667969 18.640625 121.640625 C 12.886719 121.207031 8.09375 119.601562 4.101562 114.996094 C 3.222656 113.867188 3.222656 113.867188 2.34375 112.5 C 1.929688 111.886719 1.515625 111.273438 1.085938 110.644531 C -0.535156 107.59375 -0.425781 104.390625 -0.402344 100.972656 C -0.398438 100.3125 -0.394531 99.65625 -0.390625 98.976562 C -0.242188 93.890625 0.527344 90.324219 4.101562 86.679688 C 4.503906 86.261719 4.90625 85.847656 5.320312 85.417969 C 9.574219 81.542969 14.316406 79.738281 19.921875 79.917969 C 19.910156 79.117188 19.894531 78.316406 19.878906 77.492188 C 19.871094 76.429688 19.859375 75.371094 19.847656 74.308594 C 19.839844 73.78125 19.828125 73.257812 19.820312 72.714844 C 19.789062 68.535156 20.214844 65.289062 22.886719 62.011719 C 23.195312 61.617188 23.507812 61.222656 23.824219 60.816406 C 28.589844 56.695312 33.691406 56.863281 39.585938 57.019531 C 40.410156 57.03125 41.234375 57.042969 42.054688 57.050781 C 44.054688 57.082031 46.050781 57.121094 48.046875 57.171875 C 48.128906 56.5 48.210938 55.828125 48.296875 55.136719 C 49.292969 48.414062 53.339844 42.902344 58.410156 38.921875 C 61.742188 36.570312 65.636719 34.425781 69.726562 34.425781 C 69.925781 32.429688 70.085938 30.433594 70.238281 28.433594 C 70.296875 27.867188 70.355469 27.300781 70.414062 26.71875 C 70.523438 25.113281 70.582031 23.714844 70.3125 22.132812 C 68.714844 20.558594 68.714844 20.558594 66.796875 19.671875 C 64.375 16.460938 64.085938 13.78125 64.226562 9.71875 C 64.636719 6.578125 66.078125 5 68.226562 2.921875 C 72.296875 0.00390625 76.03125 -0.183594 80.355469 2.289062 Z M 76.757812 5.53125 C 76.757812 6.34375 76.757812 7.15625 76.757812 7.992188 C 77.335938 7.992188 77.917969 7.992188 78.515625 7.992188 C 78.515625 7.179688 78.515625 6.367188 78.515625 5.53125 C 77.9375 5.53125 77.355469 5.53125 76.757812 5.53125 Z M 32.8125 70.082031 C 32.800781 81.125 32.789062 92.167969 32.777344 103.546875 C 32.769531 107.039062 32.765625 110.53125 32.757812 114.132812 C 32.757812 117.25 32.757812 117.25 32.757812 120.371094 C 32.753906 121.761719 32.753906 123.15625 32.75 124.550781 C 32.746094 126.65625 32.746094 128.761719 32.746094 130.871094 C 32.742188 131.496094 32.742188 132.121094 32.738281 132.765625 C 32.742188 133.328125 32.742188 133.890625 32.742188 134.472656 C 32.742188 134.964844 32.742188 135.460938 32.742188 135.96875 C 32.695312 137.101562 32.695312 137.101562 33.398438 137.703125 C 34.464844 137.765625 35.535156 137.78125 36.605469 137.777344 C 37.300781 137.78125 37.996094 137.78125 38.714844 137.78125 C 39.484375 137.777344 40.253906 137.777344 41.050781 137.773438 C 41.863281 137.773438 42.675781 137.773438 43.492188 137.773438 C 45.707031 137.773438 47.925781 137.773438 50.140625 137.765625 C 52.453125 137.761719 54.769531 137.761719 57.082031 137.761719 C 61.46875 137.761719 65.851562 137.753906 70.238281 137.75 C 76.160156 137.742188 82.082031 137.738281 88.007812 137.734375 C 97.34375 137.726562 106.679688 137.714844 116.015625 137.703125 C 116.015625 115.390625 116.015625 93.074219 116.015625 70.082031 C 88.558594 70.082031 61.101562 70.082031 32.8125 70.082031 Z M 32.8125 70.082031 "/>
<path style=" stroke:none;fill-rule:nonzero;fill:rgb(42.745098%,41.176471%,69.803923%);fill-opacity:1;" d="M 80.96875 113.039062 C 81.453125 113.035156 81.9375 113.035156 82.4375 113.035156 C 88.773438 113.015625 95.046875 113.230469 101.367188 113.730469 C 101.382812 115.867188 101.394531 118.007812 101.402344 120.144531 C 101.410156 120.757812 101.414062 121.367188 101.417969 121.996094 C 101.421875 122.578125 101.421875 123.15625 101.425781 123.753906 C 101.425781 124.292969 101.429688 124.832031 101.433594 125.382812 C 101.367188 126.640625 101.367188 126.640625 100.78125 127.253906 C 99.160156 127.316406 97.558594 127.335938 95.9375 127.332031 C 95.175781 127.335938 95.175781 127.335938 94.398438 127.335938 C 92.710938 127.339844 91.023438 127.335938 89.335938 127.335938 C 88.171875 127.335938 87.003906 127.335938 85.835938 127.335938 C 83.386719 127.339844 80.9375 127.335938 78.488281 127.335938 C 75.34375 127.332031 72.195312 127.332031 69.046875 127.335938 C 66.636719 127.339844 64.226562 127.339844 61.816406 127.335938 C 60.65625 127.335938 59.496094 127.335938 58.335938 127.335938 C 56.714844 127.339844 55.097656 127.335938 53.476562 127.332031 C 52.992188 127.335938 52.507812 127.335938 52.007812 127.335938 C 48.699219 127.324219 48.699219 127.324219 48.046875 126.640625 C 47.996094 125.679688 47.984375 124.71875 47.988281 123.753906 C 47.992188 123.175781 47.992188 122.59375 47.996094 121.996094 C 48 121.386719 48.003906 120.773438 48.011719 120.144531 C 48.011719 119.53125 48.015625 118.921875 48.019531 118.289062 C 48.023438 116.769531 48.035156 115.25 48.046875 113.730469 C 59.019531 113.320312 69.988281 113.050781 80.96875 113.039062 Z M 80.96875 113.039062 "/>
<path style=" stroke:none;fill-rule:nonzero;fill:rgb(41.960785%,40.784314%,71.764708%);fill-opacity:1;" d="M 59.964844 80.503906 C 63.253906 82.535156 65.773438 85.199219 66.796875 89.140625 C 67.28125 93.140625 66.714844 96.296875 64.453125 99.589844 C 62.007812 102.328125 60.09375 103.6875 56.511719 104.039062 C 52.714844 104.148438 50.511719 103.867188 47.460938 101.433594 C 45.09375 98.953125 43.921875 96.914062 43.359375 93.441406 C 43.410156 90.375 43.832031 87.617188 45.117188 84.835938 C 45.503906 84.835938 45.890625 84.835938 46.289062 84.835938 C 46.441406 84.457031 46.59375 84.082031 46.75 83.691406 C 49.179688 79.195312 55.804688 78.726562 59.964844 80.503906 Z M 59.964844 80.503906 "/>
<path style=" stroke:none;fill-rule:nonzero;fill:rgb(41.960785%,40.784314%,71.372551%);fill-opacity:1;" d="M 99.828125 80.992188 C 102.753906 82.757812 104.40625 84.515625 105.46875 87.910156 C 105.828125 91.660156 106.023438 95.242188 104.515625 98.707031 C 101.394531 102.070312 99.109375 103.96875 94.484375 104.085938 C 90.164062 104.035156 88.269531 102.917969 85.070312 99.859375 C 82.960938 96.960938 82.476562 93.152344 82.707031 89.582031 C 83.371094 86.101562 85.015625 83.660156 87.746094 81.605469 C 91.617188 79.257812 95.761719 78.996094 99.828125 80.992188 Z M 99.828125 80.992188 "/>
<path style=" stroke:none;fill-rule:nonzero;fill:rgb(34.509805%,33.333334%,53.725493%);fill-opacity:1;" d="M 118.359375 68.238281 C 118.554688 68.847656 118.746094 69.453125 118.945312 70.082031 C 118.558594 70.691406 118.171875 71.300781 117.773438 71.925781 C 117.59375 73.203125 117.59375 73.203125 117.609375 74.621094 C 117.605469 75.171875 117.597656 75.722656 117.589844 76.292969 C 117.589844 77.195312 117.589844 77.195312 117.585938 78.117188 C 117.582031 78.753906 117.574219 79.390625 117.570312 80.042969 C 117.550781 82.148438 117.539062 84.253906 117.53125 86.359375 C 117.519531 87.820312 117.507812 89.277344 117.496094 90.734375 C 117.464844 94.578125 117.441406 98.417969 117.421875 102.261719 C 117.398438 106.179688 117.367188 110.097656 117.339844 114.015625 C 117.28125 121.707031 117.230469 129.398438 117.1875 137.089844 C 116.992188 137.089844 116.800781 137.089844 116.601562 137.089844 C 116.601562 114.773438 116.601562 92.460938 116.601562 69.46875 C 89.144531 69.46875 61.6875 69.46875 33.398438 69.46875 C 33.398438 69.265625 33.398438 69.0625 33.398438 68.851562 C 33.761719 68.851562 34.121094 68.847656 34.496094 68.84375 C 43.355469 68.78125 52.214844 68.714844 61.074219 68.644531 C 65.355469 68.609375 69.640625 68.578125 73.925781 68.546875 C 77.664062 68.519531 81.402344 68.492188 85.140625 68.460938 C 87.117188 68.445312 89.09375 68.429688 91.070312 68.417969 C 102.320312 68.34375 102.320312 68.34375 113.554688 67.691406 C 115.285156 67.628906 116.6875 67.789062 118.359375 68.238281 Z M 118.359375 68.238281 "/>
<path style=" stroke:none;fill-rule:nonzero;fill:rgb(39.607844%,38.039216%,65.098041%);fill-opacity:1;" d="M 33.726562 65.742188 C 34.433594 65.757812 34.433594 65.757812 35.15625 65.777344 C 35.351562 66.386719 35.542969 66.996094 35.742188 67.621094 C 36.234375 67.621094 36.234375 67.621094 36.738281 67.621094 C 44.710938 67.59375 52.6875 67.570312 60.664062 67.558594 C 64.519531 67.554688 68.378906 67.542969 72.234375 67.53125 C 75.953125 67.515625 79.671875 67.507812 83.390625 67.507812 C 84.8125 67.503906 86.234375 67.5 87.65625 67.492188 C 89.644531 67.484375 91.628906 67.484375 93.613281 67.484375 C 94.503906 67.476562 94.503906 67.476562 95.410156 67.46875 C 95.949219 67.472656 96.488281 67.472656 97.042969 67.476562 C 97.515625 67.472656 97.984375 67.472656 98.46875 67.472656 C 99.609375 67.621094 99.609375 67.621094 100.78125 68.851562 C 78.546875 68.851562 56.308594 68.851562 33.398438 68.851562 C 33.398438 69.257812 33.398438 69.664062 33.398438 70.082031 C 32.820312 70.285156 32.238281 70.488281 31.640625 70.695312 C 32.027344 69.683594 32.414062 68.667969 32.8125 67.621094 C 32.425781 67.21875 32.039062 66.8125 31.640625 66.394531 C 32.226562 65.777344 32.226562 65.777344 33.726562 65.742188 Z M 33.726562 65.742188 "/>
<path style=" stroke:none;fill-rule:nonzero;fill:rgb(49.019608%,47.450981%,70.19608%);fill-opacity:1;" d="M 79.175781 1.613281 C 82.015625 3.242188 83.921875 5.332031 84.960938 8.605469 C 85.28125 12.339844 85.164062 15.1875 83.203125 18.441406 C 82.03125 16.597656 82.03125 16.597656 82.214844 15.292969 C 82.347656 14.707031 82.480469 14.125 82.617188 13.523438 C 82.839844 11.683594 83.023438 9.839844 83.203125 7.992188 C 82.625 7.789062 82.042969 7.585938 81.445312 7.378906 C 81.25 7.78125 81.058594 8.1875 80.859375 8.605469 C 80.085938 8.402344 79.3125 8.199219 78.515625 7.992188 C 78.320312 6.367188 78.128906 4.746094 77.929688 3.074219 C 77.230469 3.085938 76.527344 3.097656 75.804688 3.113281 C 73.722656 3.117188 71.773438 2.886719 69.726562 2.460938 C 72.355469 -0.300781 75.984375 0.0898438 79.175781 1.613281 Z M 79.175781 1.613281 "/>
<path style=" stroke:none;fill-rule:nonzero;fill:rgb(37.254903%,35.686275%,59.215689%);fill-opacity:1;" d="M 118.359375 68.238281 C 118.554688 68.847656 118.746094 69.453125 118.945312 70.082031 C 118.367188 70.996094 118.367188 70.996094 117.773438 71.925781 C 117.59375 73.203125 117.59375 73.203125 117.609375 74.621094 C 117.605469 75.171875 117.597656 75.722656 117.589844 76.292969 C 117.589844 76.894531 117.589844 77.496094 117.585938 78.117188 C 117.582031 78.753906 117.574219 79.390625 117.570312 80.042969 C 117.550781 82.148438 117.539062 84.253906 117.53125 86.359375 C 117.519531 87.820312 117.507812 89.277344 117.496094 90.734375 C 117.464844 94.578125 117.441406 98.417969 117.421875 102.261719 C 117.398438 106.179688 117.367188 110.097656 117.339844 114.015625 C 117.28125 121.707031 117.230469 129.398438 117.1875 137.089844 C 116.992188 137.089844 116.800781 137.089844 116.601562 137.089844 C 116.601562 114.773438 116.601562 92.460938 116.601562 69.46875 C 112.929688 69.265625 109.253906 69.0625 105.46875 68.851562 C 105.46875 68.648438 105.46875 68.445312 105.46875 68.238281 C 107.066406 68.117188 108.667969 68.003906 110.265625 67.890625 C 110.714844 67.859375 111.167969 67.824219 111.632812 67.789062 C 113.988281 67.628906 116.050781 67.582031 118.359375 68.238281 Z M 118.359375 68.238281 "/>
<path style=" stroke:none;fill-rule:nonzero;fill:rgb(46.666667%,45.882353%,67.450982%);fill-opacity:1;" d="M 97.265625 79.917969 C 97.84375 80.324219 98.425781 80.730469 99.023438 81.148438 C 98.828125 81.554688 98.636719 81.960938 98.4375 82.378906 C 98.136719 82.277344 97.832031 82.175781 97.523438 82.070312 C 95.28125 81.585938 92.90625 81.285156 90.820312 82.378906 C 90.820312 83.1875 90.820312 84 90.820312 84.835938 C 90.375 84.734375 89.925781 84.632812 89.464844 84.527344 C 87.871094 84.164062 87.871094 84.164062 86.132812 84.222656 C 86.058594 84.691406 85.988281 85.160156 85.914062 85.644531 C 85.546875 87.296875 85.546875 87.296875 84.375 89.140625 C 84.148438 90.15625 83.949219 91.183594 83.789062 92.214844 C 83.402344 92.214844 83.015625 92.214844 82.617188 92.214844 C 83.132812 88.128906 83.703125 85.265625 86.71875 82.378906 C 89.980469 79.9375 93.304688 79.285156 97.265625 79.917969 Z M 97.265625 79.917969 "/>
<path style=" stroke:none;fill-rule:nonzero;fill:rgb(57.647061%,56.862748%,75.294119%);fill-opacity:1;" d="M 98.4375 49.796875 C 98.824219 49.796875 99.210938 49.796875 99.609375 49.796875 C 99.90625 50.675781 100.199219 51.5625 100.488281 52.445312 C 100.652344 52.9375 100.816406 53.429688 100.984375 53.9375 C 101.367188 55.328125 101.367188 55.328125 101.367188 57.171875 C 107.167969 57.171875 112.96875 57.171875 118.945312 57.171875 C 118.945312 57.375 118.945312 57.578125 118.945312 57.785156 C 115.257812 58.441406 111.585938 58.597656 107.847656 58.746094 C 106.914062 58.789062 106.914062 58.789062 105.957031 58.828125 C 104.425781 58.894531 102.898438 58.957031 101.367188 59.015625 C 100.175781 56.722656 99.609375 55.53125 99.609375 52.867188 C 99.03125 52.664062 98.449219 52.464844 97.851562 52.253906 C 98.046875 51.441406 98.238281 50.632812 98.4375 49.796875 Z M 98.4375 49.796875 "/>
<path style=" stroke:none;fill-rule:nonzero;fill:rgb(38.82353%,36.470589%,63.529414%);fill-opacity:1;" d="M 132.238281 120.109375 C 132.710938 120.175781 133.1875 120.242188 133.675781 120.3125 C 134.214844 120.402344 134.214844 120.402344 134.765625 120.492188 C 133.007812 121.722656 133.007812 121.722656 129.492188 122.335938 C 129.296875 128.421875 129.105469 134.507812 128.90625 140.777344 C 128.519531 140.574219 128.132812 140.371094 127.734375 140.164062 C 127.691406 137.472656 127.660156 134.78125 127.636719 132.089844 C 127.628906 131.171875 127.617188 130.257812 127.601562 129.339844 C 127.582031 128.027344 127.570312 126.710938 127.5625 125.394531 C 127.554688 124.601562 127.542969 123.8125 127.535156 122.996094 C 127.601562 122.371094 127.667969 121.75 127.734375 121.105469 C 129.699219 119.730469 130.023438 119.769531 132.238281 120.109375 Z M 132.238281 120.109375 "/>
<path style=" stroke:none;fill-rule:nonzero;fill:rgb(63.921571%,63.137257%,80.392158%);fill-opacity:1;" d="M 34.402344 57.050781 C 35.128906 57.054688 35.859375 57.058594 36.609375 57.0625 C 37.738281 57.078125 37.738281 57.078125 38.890625 57.09375 C 39.660156 57.101562 40.425781 57.105469 41.214844 57.113281 C 43.101562 57.125 44.988281 57.148438 46.875 57.171875 C 46.875 57.375 46.875 57.578125 46.875 57.785156 C 46.28125 57.824219 45.683594 57.863281 45.070312 57.898438 C 42.964844 58.03125 40.855469 58.171875 38.746094 58.316406 C 37.617188 58.394531 36.484375 58.464844 35.351562 58.535156 C 34.730469 58.582031 34.113281 58.625 33.472656 58.671875 C 32.917969 58.707031 32.363281 58.746094 31.792969 58.785156 C 30.355469 58.898438 30.355469 58.898438 29.296875 60.246094 C 27.742188 60.59375 26.195312 60.699219 24.609375 60.859375 C 27.371094 57.515625 30.304688 57.011719 34.402344 57.050781 Z M 34.402344 57.050781 "/>
<path style=" stroke:none;fill-rule:nonzero;fill:rgb(58.039218%,57.254905%,73.725492%);fill-opacity:1;" d="M 19.921875 68.238281 C 20.117188 68.238281 20.308594 68.238281 20.507812 68.238281 C 20.507812 72.496094 20.507812 76.757812 20.507812 81.148438 C 19.15625 81.351562 17.800781 81.554688 16.40625 81.761719 C 15.046875 82.214844 15.046875 82.214844 13.878906 82.761719 C 12.808594 83.179688 12.808594 83.179688 11.71875 83.605469 C 11.332031 83.402344 10.945312 83.199219 10.546875 82.992188 C 10.546875 82.585938 10.546875 82.179688 10.546875 81.761719 C 11.335938 81.445312 12.132812 81.140625 12.925781 80.839844 C 13.367188 80.667969 13.8125 80.496094 14.265625 80.320312 C 15.820312 79.917969 15.820312 79.917969 19.921875 79.917969 C 19.921875 76.0625 19.921875 72.210938 19.921875 68.238281 Z M 19.921875 68.238281 "/>
<path style=" stroke:none;fill-rule:nonzero;fill:rgb(48.235294%,46.666667%,68.235296%);fill-opacity:1;" d="M 104.296875 92.214844 C 104.683594 92.214844 105.070312 92.214844 105.46875 92.214844 C 105.738281 95.746094 105.277344 97.46875 103.125 100.203125 C 100.171875 103.277344 100.171875 103.277344 97.851562 103.277344 C 98.046875 102.46875 98.238281 101.65625 98.4375 100.820312 C 99.40625 100.617188 100.371094 100.414062 101.367188 100.203125 C 101.367188 99.800781 101.367188 99.394531 101.367188 98.976562 C 101.753906 98.976562 102.140625 98.976562 102.539062 98.976562 C 102.34375 98.367188 102.152344 97.757812 101.953125 97.132812 C 102.726562 96.726562 103.5 96.320312 104.296875 95.902344 C 104.296875 94.683594 104.296875 93.46875 104.296875 92.214844 Z M 104.296875 92.214844 "/>
<path style=" stroke:none;fill-rule:nonzero;fill:rgb(52.156866%,50.980395%,68.235296%);fill-opacity:1;" d="M 55.445312 79.878906 C 56.324219 79.886719 56.324219 79.886719 57.226562 79.894531 C 57.675781 79.902344 58.128906 79.910156 58.59375 79.917969 C 58.398438 80.527344 58.207031 81.136719 58.007812 81.761719 C 57.617188 81.742188 57.230469 81.71875 56.828125 81.699219 C 53.667969 81.597656 51.894531 81.707031 49.21875 83.605469 C 47.863281 83.414062 47.863281 83.414062 46.875 82.992188 C 52.109375 79.839844 52.109375 79.839844 55.445312 79.878906 Z M 55.445312 79.878906 "/>
<path style=" stroke:none;fill-rule:nonzero;fill:rgb(54.901963%,52.549022%,76.078433%);fill-opacity:1;" d="M 60.351562 125.410156 C 61.523438 125.433594 62.695312 125.4375 63.867188 125.410156 C 63.867188 125.816406 63.867188 126.222656 63.867188 126.640625 C 58.777344 127.1875 53.75 127.324219 48.632812 127.253906 C 48.632812 127.050781 48.632812 126.847656 48.632812 126.640625 C 49.027344 126.609375 49.425781 126.578125 49.832031 126.546875 C 50.355469 126.503906 50.878906 126.457031 51.414062 126.410156 C 51.933594 126.367188 52.449219 126.324219 52.980469 126.277344 C 59.367188 125.203125 59.367188 125.203125 60.351562 125.410156 Z M 60.351562 125.410156 "/>
<path style=" stroke:none;fill-rule:nonzero;fill:rgb(51.372552%,50.588238%,71.372551%);fill-opacity:1;" d="M 45.117188 97.746094 C 47.015625 98.390625 48.382812 99.195312 49.878906 100.550781 C 51.449219 102.136719 51.449219 102.136719 53.320312 102.664062 C 53.320312 103.070312 53.320312 103.476562 53.320312 103.894531 C 50.003906 103.804688 48.375 102.234375 46.019531 100.015625 C 45.117188 98.976562 45.117188 98.976562 45.117188 97.746094 Z M 45.117188 97.746094 "/>
<path style=" stroke:none;fill-rule:nonzero;fill:rgb(58.039218%,57.254905%,72.549021%);fill-opacity:1;" d="M 79.6875 1.84375 C 79.6875 2.046875 79.6875 2.25 79.6875 2.460938 C 72.9375 3.277344 72.9375 3.277344 69.726562 2.460938 C 72.476562 -0.425781 76.417969 0.183594 79.6875 1.84375 Z M 79.6875 1.84375 "/>
<path style=" stroke:none;fill-rule:nonzero;fill:rgb(53.333336%,52.549022%,69.803923%);fill-opacity:1;" d="M 65.625 89.140625 C 66.011719 89.140625 66.398438 89.140625 66.796875 89.140625 C 67.019531 92.949219 66.699219 95.5625 65.039062 98.976562 C 64.652344 98.976562 64.265625 98.976562 63.867188 98.976562 C 63.867188 97.960938 63.867188 96.945312 63.867188 95.902344 C 64.253906 95.902344 64.640625 95.902344 65.039062 95.902344 C 65.234375 93.671875 65.425781 91.4375 65.625 89.140625 Z M 65.625 89.140625 "/>
<path style=" stroke:none;fill-rule:nonzero;fill:rgb(50.196081%,48.627451%,70.19608%);fill-opacity:1;" d="M 24.023438 60.859375 C 24.410156 61.0625 24.796875 61.265625 25.195312 61.476562 C 25.085938 63.203125 25.085938 63.203125 24.609375 65.164062 C 23.179688 66.355469 23.179688 66.355469 21.679688 67.007812 C 21.292969 66.804688 20.90625 66.601562 20.507812 66.394531 C 21.277344 63.972656 22.21875 62.566406 24.023438 60.859375 Z M 24.023438 60.859375 "/>
<path style=" stroke:none;fill-rule:nonzero;fill:rgb(40.000001%,38.039216%,64.313728%);fill-opacity:1;" d="M 118.359375 68.238281 C 118.554688 68.847656 118.746094 69.453125 118.945312 70.082031 C 118.367188 70.691406 117.785156 71.300781 117.1875 71.925781 C 116.992188 71.113281 116.800781 70.304688 116.601562 69.46875 C 112.929688 69.265625 109.253906 69.0625 105.46875 68.851562 C 105.46875 68.648438 105.46875 68.445312 105.46875 68.238281 C 107.066406 68.117188 108.667969 68.003906 110.265625 67.890625 C 110.714844 67.859375 111.167969 67.824219 111.632812 67.789062 C 113.988281 67.628906 116.050781 67.582031 118.359375 68.238281 Z M 118.359375 68.238281 "/>
<path style=" stroke:none;fill-rule:nonzero;fill:rgb(49.411765%,47.450981%,69.803923%);fill-opacity:1;" d="M 83.789062 94.671875 C 87.214844 98.078125 87.214844 98.078125 87.890625 100.203125 C 87.695312 100.8125 87.503906 101.421875 87.304688 102.050781 C 86.726562 101.386719 86.152344 100.722656 85.582031 100.050781 C 85.265625 99.679688 84.945312 99.308594 84.617188 98.925781 C 83.746094 97.683594 83.398438 96.804688 83.203125 95.285156 C 83.398438 95.085938 83.589844 94.882812 83.789062 94.671875 Z M 83.789062 94.671875 "/>
<path style=" stroke:none;fill-rule:nonzero;fill:rgb(41.176471%,40.000001%,63.137257%);fill-opacity:1;" d="M 0.585938 94.058594 C 1.695312 96.386719 1.175781 99.253906 1.136719 101.8125 C 1.164062 103.488281 1.273438 104.773438 1.757812 106.351562 C 1.179688 106.554688 0.597656 106.757812 0 106.96875 C -0.015625 104.929688 -0.0273438 102.894531 -0.0351562 100.859375 C -0.0429688 100.277344 -0.046875 99.695312 -0.0507812 99.097656 C -0.0546875 98.542969 -0.0546875 97.992188 -0.0585938 97.421875 C -0.0585938 96.910156 -0.0625 96.398438 -0.0664062 95.871094 C 0 94.671875 0 94.671875 0.585938 94.058594 Z M 0.585938 94.058594 "/>
<path style=" stroke:none;fill-rule:nonzero;fill:rgb(52.941179%,50.588238%,69.411767%);fill-opacity:1;" d="M 54.492188 42.417969 C 55.039062 44.269531 55.105469 44.796875 54.492188 46.722656 C 53.71875 46.722656 52.945312 46.722656 52.148438 46.722656 C 51.953125 47.734375 51.761719 48.75 51.5625 49.796875 C 51.175781 49.796875 50.789062 49.796875 50.390625 49.796875 C 51.1875 46.597656 52.421875 44.820312 54.492188 42.417969 Z M 54.492188 42.417969 "/>
<path style=" stroke:none;fill-rule:nonzero;fill:rgb(57.254905%,56.078434%,72.156864%);fill-opacity:1;" d="M 61.523438 36.886719 C 61.910156 37.089844 62.296875 37.289062 62.695312 37.5 C 61.660156 38.585938 60.621094 39.652344 59.546875 40.6875 C 59.203125 41.027344 58.859375 41.367188 58.507812 41.714844 C 57.96875 42.0625 57.96875 42.0625 57.421875 42.417969 C 56.648438 42.214844 55.875 42.011719 55.078125 41.804688 C 57.203125 40.179688 59.332031 38.558594 61.523438 36.886719 Z M 61.523438 36.886719 "/>
<path style=" stroke:none;fill-rule:nonzero;fill:rgb(58.431375%,57.647061%,73.333335%);fill-opacity:1;" d="M 79.101562 32.582031 C 79.296875 33.191406 79.488281 33.800781 79.6875 34.425781 C 80.882812 34.875 80.882812 34.875 82.289062 35.078125 C 84.84375 35.53125 84.84375 35.53125 86.132812 36.886719 C 84.199219 37.5625 83.550781 37.421875 81.628906 36.921875 C 81.15625 36.804688 80.679688 36.683594 80.191406 36.5625 C 79.832031 36.464844 79.472656 36.371094 79.101562 36.269531 C 79.101562 35.054688 79.101562 33.835938 79.101562 32.582031 Z M 79.101562 32.582031 "/>
<path style=" stroke:none;fill-rule:nonzero;fill:rgb(53.333336%,52.549022%,69.803923%);fill-opacity:1;" d="M 85.546875 83.605469 C 85.742188 83.605469 85.933594 83.605469 86.132812 83.605469 C 86.339844 86.207031 85.875 87.128906 84.375 89.140625 C 83.957031 90.769531 83.957031 90.769531 83.789062 92.214844 C 83.402344 92.214844 83.015625 92.214844 82.617188 92.214844 C 82.769531 91.238281 82.929688 90.265625 83.09375 89.292969 C 83.226562 88.480469 83.226562 88.480469 83.359375 87.652344 C 83.824219 85.941406 84.425781 84.925781 85.546875 83.605469 Z M 85.546875 83.605469 "/>
<path style=" stroke:none;fill-rule:nonzero;fill:rgb(38.431373%,37.64706%,60.392159%);fill-opacity:1;" d="M 69.726562 20.285156 C 70.5 20.285156 71.273438 20.285156 72.070312 20.285156 C 72.070312 22.722656 72.070312 25.15625 72.070312 27.664062 C 71.683594 27.664062 71.296875 27.664062 70.898438 27.664062 C 70.863281 27.285156 70.828125 26.90625 70.789062 26.519531 C 70.742188 26.023438 70.691406 25.523438 70.640625 25.011719 C 70.59375 24.519531 70.546875 24.027344 70.496094 23.523438 C 70.339844 22.03125 70.339844 22.03125 69.726562 20.285156 Z M 69.726562 20.285156 "/>
<path style=" stroke:none;fill-rule:nonzero;fill:rgb(50.196081%,49.019608%,69.803923%);fill-opacity:1;" d="M 49.804688 49.796875 C 50.464844 51.875 50.285156 52.726562 49.839844 54.828125 C 49.726562 55.382812 49.613281 55.9375 49.496094 56.507812 C 49.40625 56.929688 49.3125 57.351562 49.21875 57.785156 C 48.640625 57.785156 48.058594 57.785156 47.460938 57.785156 C 48.234375 55.148438 49.007812 52.511719 49.804688 49.796875 Z M 49.804688 49.796875 "/>
<path style=" stroke:none;fill-rule:nonzero;fill:rgb(49.803922%,48.627451%,69.01961%);fill-opacity:1;" d="M 0 106.96875 C 1.136719 107.351562 1.136719 107.351562 2.34375 108.195312 C 2.710938 110.078125 2.710938 110.078125 2.929688 111.886719 C 3.316406 112.089844 3.703125 112.289062 4.101562 112.5 C 3.523438 112.5 2.941406 112.5 2.34375 112.5 C 0 108.351562 0 108.351562 0 106.96875 Z M 0 106.96875 "/>
<path style=" stroke:none;fill-rule:nonzero;fill:rgb(47.843137%,45.882353%,71.764708%);fill-opacity:1;" d="M 60.9375 81.761719 C 62.789062 82.605469 63.277344 82.984375 64.453125 84.835938 C 63.101562 85.039062 61.746094 85.242188 60.351562 85.449219 C 60.546875 84.234375 60.738281 83.015625 60.9375 81.761719 Z M 60.9375 81.761719 "/>
<path style=" stroke:none;fill-rule:nonzero;fill:rgb(40.784314%,39.607844%,61.56863%);fill-opacity:1;" d="M 129.492188 119.878906 C 131.234375 120.078125 132.972656 120.28125 134.765625 120.492188 C 132.746094 121.902344 131.285156 122.054688 128.90625 122.335938 C 129.101562 121.523438 129.292969 120.714844 129.492188 119.878906 Z M 129.492188 119.878906 "/>
<path style=" stroke:none;fill-rule:nonzero;fill:rgb(50.588238%,50.196081%,72.549021%);fill-opacity:1;" d="M 43.359375 90.367188 C 43.9375 90.570312 44.519531 90.773438 45.117188 90.984375 C 45.851562 95.671875 45.851562 95.671875 44.53125 97.746094 C 43.773438 95.214844 43.207031 93.03125 43.359375 90.367188 Z M 43.359375 90.367188 "/>
<path style=" stroke:none;fill-rule:nonzero;fill:rgb(50.588238%,49.019608%,69.01961%);fill-opacity:1;" d="M 103.710938 84.835938 C 105.054688 86.953125 105.199219 88.488281 105.46875 90.984375 C 105.273438 90.578125 105.082031 90.171875 104.882812 89.753906 C 104.496094 89.753906 104.109375 89.753906 103.710938 89.753906 C 103.324219 88.335938 102.9375 86.914062 102.539062 85.449219 C 102.925781 85.246094 103.3125 85.046875 103.710938 84.835938 Z M 103.710938 84.835938 "/>
<path style=" stroke:none;fill-rule:nonzero;fill:rgb(47.450981%,46.27451%,73.725492%);fill-opacity:1;" d="M 44.53125 86.066406 C 45.703125 86.679688 46.875 87.296875 48.046875 87.910156 C 47.851562 88.316406 47.660156 88.722656 47.460938 89.140625 C 47.074219 89.140625 46.6875 89.140625 46.289062 89.140625 C 46.09375 89.546875 45.902344 89.949219 45.703125 90.367188 C 45.125 89.964844 44.542969 89.558594 43.945312 89.140625 C 44.140625 88.125 44.332031 87.109375 44.53125 86.066406 Z M 44.53125 86.066406 "/>
<path style=" stroke:none;fill-rule:nonzero;fill:rgb(53.333336%,52.941179%,70.19608%);fill-opacity:1;" d="M 91.992188 40.574219 C 94.085938 41.730469 95.242188 42.523438 96.09375 44.878906 C 94.453125 44.640625 93.855469 44.382812 92.726562 43.070312 C 91.992188 41.804688 91.992188 41.804688 91.992188 40.574219 Z M 91.992188 40.574219 "/>
<path style=" stroke:none;fill-rule:nonzero;fill:rgb(48.627451%,47.450981%,68.627453%);fill-opacity:1;" d="M 137.695312 81.761719 C 139.402344 82.421875 140.496094 82.855469 141.796875 84.222656 C 140.636719 84.425781 139.476562 84.628906 138.28125 84.835938 C 137.894531 84.023438 137.507812 83.214844 137.109375 82.378906 C 137.304688 82.175781 137.496094 81.972656 137.695312 81.761719 Z M 137.695312 81.761719 "/>
<path style=" stroke:none;fill-rule:nonzero;fill:rgb(45.09804%,43.529412%,62.352943%);fill-opacity:1;" d="M 127.734375 140.777344 C 128.121094 140.777344 128.507812 140.777344 128.90625 140.777344 C 128.710938 142.605469 128.519531 144.429688 128.320312 146.3125 C 127.933594 146.3125 127.546875 146.3125 127.148438 146.3125 C 127.34375 144.484375 127.535156 142.660156 127.734375 140.777344 Z M 127.734375 140.777344 "/>
<path style=" stroke:none;fill-rule:nonzero;fill:rgb(51.764709%,50.196081%,68.235296%);fill-opacity:1;" d="M 124.21875 60.246094 C 125.414062 61.238281 126.585938 62.265625 127.734375 63.320312 C 127.734375 63.726562 127.734375 64.132812 127.734375 64.550781 C 127.15625 64.753906 126.574219 64.953125 125.976562 65.164062 C 125.976562 64.554688 125.976562 63.945312 125.976562 63.320312 C 125.589844 63.320312 125.203125 63.320312 124.804688 63.320312 C 124.609375 62.304688 124.417969 61.289062 124.21875 60.246094 Z M 124.21875 60.246094 "/>
</g>
</svg>
